<svg xmlns="http://www.w3.org/2000/svg" viewBox="0 0 1000 390"><g style="isolation:isolate"><g id="Layer_1" data-name="Layer 1"><path d="M507.36,390.49v-36H509v-3.87h5.34v3.87h2.15v-4h3.1v-2.75h5.25v2.75h.87v4h1.63v7.06h2.15v2.76h1.29v15.5h1.55v-9.39h.78v-2.67h3.53V370h.86v-2H539v-1.38h3.28v3.71h1.63v-8.1h5.77v6.89h1V344.69H552v-7h2.93v7H556v35h1.12V355.28h1v-3.36h4.14v3.27h1.55v-5.25l.77-.77,1,1v5h1.08v7.24h1.81v3h1.37V362.6h2.24v-2.07h5.34v20.41h3V379.3h2.67v-2.07h4.57v2.59h2.23v6.88h2.85v-6.8h4v-2.24h2.33v-5.07h6.28V359.84h1.47v-1.37h2.66v-2.16h2v-1.63l1.47-.86,1,.86v-1.81l1-1,1.29,1.11v21.7h1.64v-7.32h5.85v2.93h1.29v-2.07h3.45v-4.13h7.31v-3.61h7.75v3.7h1.9v-3.79l1.29-.95,1.2.95v1.46h4.22v2.41H653v15.42h1.81V350.11h1.64V348h-.69v-3.61l1.55-1,1.46,1V348h-.69V350h2.16v-3.62h4.82V350h1.2v1.2h-.6v31.34h1.12V370.35H674V368h3.19v2.24h.78v1.12h-.52v15.93H679V370.17h6.89v-2h3.27v2.07h2.67V352.7h1v-3.19h1.37V347.1l1-1,1.07,1.07V349h1.68v3.71h3.79v28.58h7V340.73H710v-1.25h2.5v-4.69h1.37V332l1-1,1.25,1.25v2.54h1.24v4.69h1.38v16.66h3.53V350h.95v-4h4.13v3.79h1.29v-6.12l.95-.94,1,1v5.81H732v12.14h1.64v2.58h5.08v-8.78h5.42v-4.31h6.81v3.27h1.8v19.12h1.21V349.34h3.87v-4H762v45.11S507.36,390.41,507.36,390.49Z" style="fill:#23496e"/><path d="M254.11,390.49v-36h1.64v-3.87h5.33v3.87h2.16v-4h3.1v-2.75h5.25v2.75h.86v4h1.63v7.06h2.16v2.76h1.29v15.5h1.55v-9.39h.77v-2.67h3.53V370h.86v-2h1.47v-1.38H289v3.71h1.64v-8.1h5.76v6.89h.95V344.69h1.38v-7h2.93v7h1.11v35h1.12V355.28h1v-3.36H309v3.27h1.55v-5.25l.77-.77,1,1v5h1.08v7.24h1.81v3h1.38V362.6h2.24v-2.07h5.33v20.41h3V379.3h2.67v-2.07h4.56v2.59h2.24v6.88h2.84v-6.8h4.05v-2.24h2.32v-5.07h6.28V359.84h1.47v-1.37h2.67v-2.16h2v-1.63l1.46-.86.95.86v-1.81l1-1L363,353v21.7h1.64v-7.32h5.85v2.93h1.29v-2.07h3.45v-4.13h7.32v-3.61h7.75v3.7h1.89v-3.79l1.29-.95,1.21.95v1.46h4.22v2.41h.86v15.42h1.8V350.11h1.64V348h-.69v-3.61l1.55-1,1.47,1V348h-.69V350H407v-3.62h4.82V350h1.21v1.2h-.61v31.34h1.12V370.35h7.15V368h3.18v2.24h.78v1.12h-.52v15.93h1.64V370.17h6.89v-2H436v2.07h2.67V352.7h1v-3.19H441V347.1l1-1,1.08,1.07V349h1.68v3.71h3.78v28.58h7V340.73h1.2v-1.25h2.5v-4.69h1.38V332l1-1,1.25,1.25v2.54h1.25v4.69h1.37v16.66h3.53V350h1v-4h4.13v3.79h1.3v-6.12l.94-.94,1,1v5.81h1.34v12.14h1.63v2.58h5.08v-8.78h5.43v-4.31h6.8v3.27h1.81v19.12h1.2V349.34h3.88v-4h4.13v45.11S254.11,390.41,254.11,390.49Z" style="fill:#23496e"/><path d="M.05,390.49v-36H1.69v-3.87H7v3.87H9.18v-4h3.1v-2.75h5.25v2.75h.86v4H20v7.06h2.15v2.76h1.29v15.5H25v-9.39h.78v-2.67h3.53V370h.86v-2h1.46v-1.38h3.27v3.71h1.64v-8.1h5.77v6.89h.94V344.69h1.38v-7h2.93v7H48.7v35h1.12V355.28h1v-3.36H55v3.27h1.55v-5.25l.78-.77,1,1v5h1.07v7.24h1.81v3h1.38V362.6H64.8v-2.07h5.34v20.41h3V379.3h2.67v-2.07h4.56v2.59h2.24v6.88h2.84v-6.8h4.05v-2.24h2.32v-5.07h6.29V359.84h1.46v-1.37h2.67v-2.16h2v-1.63l1.47-.86.94.86v-1.81l1-1L109,353v21.7h1.63v-7.32h5.86v2.93h1.29v-2.07h3.44v-4.13h7.32v-3.61h7.75v3.7h1.89v-3.79l1.3-.95,1.2.95v1.46h4.22v2.41h.86v15.42h1.81V350.11h1.63V348h-.68v-3.61l1.55-1,1.46,1V348h-.69V350H153v-3.62h4.82V350H159v1.2h-.6v31.34h1.12V370.35h7.14V368h3.19v2.24h.77v1.12h-.51v15.93h1.63V370.17h6.89v-2h3.27v2.07h2.67V352.7h1v-3.19H187V347.1l1-1,1.08,1.07V349h1.68v3.71h3.79v28.58h7V340.73h1.21v-1.25h2.49v-4.69h1.38V332l1-1,1.25,1.25v2.54h1.25v4.69h1.38v16.66H215V350h1v-4h4.13v3.79h1.29v-6.12l1-.94,1,1v5.81h1.33v12.14h1.64v2.58h5.08v-8.78h5.42v-4.31h6.8v3.27h1.81v19.12h1.21V349.34h3.87v-4h4.13v45.11S.05,390.41.05,390.49Z" style="fill:#23496e"/><path d="M759.05,390.49v-36h1.64v-3.87H766v3.87h2.15v-4h3.1v-2.75h5.25v2.75h.86v4H779v7.06h2.15v2.76h1.29v15.5H784v-9.39h.78v-2.67h3.53V370h.86v-2h1.46v-1.38h3.27v3.71h1.64v-8.1h5.77v6.89h.94V344.69h1.38v-7h2.93v7h1.12v35h1.12V355.28h1v-3.36H814v3.27h1.55v-5.25l.78-.77,1,1v5h1.07v7.24h1.81v3h1.38V362.6h2.24v-2.07h5.34v20.41h3V379.3h2.67v-2.07h4.56v2.59h2.24v6.88h2.84v-6.8h4v-2.24h2.32v-5.07h6.29V359.84h1.46v-1.37h2.67v-2.16h2v-1.63l1.47-.86.94.86v-1.81l1-1L868,353v21.7h1.63v-7.32h5.86v2.93h1.29v-2.07h3.44v-4.13h7.32v-3.61h7.75v3.7h1.89v-3.79l1.3-.95,1.2.95v1.46h4.22v2.41h.86v15.42h1.81V350.11h1.63V348h-.68v-3.61l1.55-1,1.46,1V348h-.69V350H912v-3.62h4.82V350H918v1.2h-.6v31.34h1.12V370.35h7.14V368h3.19v2.24h.77v1.12h-.51v15.93h1.63V370.17h6.89v-2h3.27v2.07h2.67V352.7h1v-3.19H946V347.1l1-1,1.08,1.07V349h1.68v3.71h3.79v28.58h7V340.73h1.21v-1.25h2.49v-4.69h1.38V332l1-1,1.25,1.25v2.54h1.25v4.69h1.38v16.66H974V350h1v-4h4.13v3.79h1.29v-6.12l1-.94,1,1v5.81h1.33v12.14h1.64v2.58h5.08v-8.78h5.42v-4.31h6.8v3.27h1.81v19.12h1.21V349.34h3.87v-4h4.13v45.11S759.05,390.41,759.05,390.49Z" style="fill:#23496e"/><polygon points="838.37 331.69 840.21 337.96 839.56 337.96 837.73 331.69 838.37 331.69" style="fill:#bbc6cd"/><path d="M840.52,311.56a3.77,3.77,0,1,1-3.77-3.77,4.19,4.19,0,0,1,.5,0A3.76,3.76,0,0,1,840.52,311.56Z" style="fill:#708088"/><path d="M839.08,314.52a3.77,3.77,0,1,1-2.33-6.73,4.19,4.19,0,0,1,.5,0C835,308.81,835.45,315,839.08,314.52Z" style="fill:#b8c7cd;mix-blend-mode:multiply"/><path d="M839.55,389.15l-.21-.19,2.25-2.49L839.2,384a.15.15,0,0,1,0-.19l2.13-2.58-2.18-2.52a.15.15,0,0,1,0-.18l2-2.41L839,373.85a.15.15,0,0,1,0-.19l1.79-2.35-1.88-2.05a.14.14,0,0,1,0-.19l1.7-2-1.79-2.16a.15.15,0,0,1,0-.18l1.6-2.1-1.72-2.08a.15.15,0,0,1,0-.18l1.57-1.84-1.66-1.89a.17.17,0,0,1,0-.19l1.46-1.77L838.53,353a.15.15,0,0,1,0-.19l1.42-2-1.56-1.8a.12.12,0,0,1,0-.17l1.41-1.94-1.58-1.75a.14.14,0,0,1,0-.18l1.42-1.86-1.33-1.67a.13.13,0,0,1,0-.16l1.24-1.94.24.16-1.18,1.85,1.34,1.67a.15.15,0,0,1,0,.18l-1.42,1.85,1.58,1.74a.14.14,0,0,1,0,.18L838.67,349l1.56,1.8a.14.14,0,0,1,0,.18l-1.42,2,1.56,1.65a.14.14,0,0,1,0,.19l-1.46,1.78,1.65,1.9a.14.14,0,0,1,0,.19L839,360.44l1.71,2.08a.14.14,0,0,1,0,.18l-1.6,2.1,1.79,2.15a.17.17,0,0,1,0,.19l-1.7,2,1.87,2a.15.15,0,0,1,0,.19l-1.79,2.35L841.4,376a.15.15,0,0,1,0,.19l-2,2.42,2.18,2.51a.17.17,0,0,1,0,.19l-2.12,2.57,2.39,2.48a.15.15,0,0,1,0,.2Z" style="fill:#99a6ae"/><path d="M830.06,389.15l.21-.19L828,386.47l2.39-2.48a.15.15,0,0,0,0-.19l-2.13-2.58,2.18-2.52a.15.15,0,0,0,0-.18l-2-2.41,2.09-2.26a.15.15,0,0,0,0-.19l-1.79-2.35,1.88-2.05a.14.14,0,0,0,0-.19l-1.7-2,1.79-2.16a.15.15,0,0,0,0-.18l-1.6-2.1,1.72-2.08a.15.15,0,0,0,0-.18l-1.57-1.84,1.66-1.89a.17.17,0,0,0,0-.19l-1.46-1.77,1.55-1.64a.15.15,0,0,0,0-.19l-1.42-2,1.56-1.8a.12.12,0,0,0,0-.17L829.83,347l1.58-1.75a.14.14,0,0,0,0-.18L830,343.16l1.33-1.67a.13.13,0,0,0,0-.16l-1.24-1.94-.24.16L831,341.4l-1.34,1.67a.15.15,0,0,0,0,.18l1.42,1.85-1.58,1.74a.14.14,0,0,0,0,.18l1.41,1.94-1.56,1.8a.14.14,0,0,0,0,.18l1.42,2-1.56,1.65a.14.14,0,0,0,0,.19l1.46,1.78-1.65,1.9a.14.14,0,0,0,0,.19l1.56,1.83-1.71,2.08a.14.14,0,0,0,0,.18l1.6,2.1L828.69,367a.17.17,0,0,0,0,.19l1.7,2-1.87,2a.15.15,0,0,0,0,.19l1.79,2.35L828.21,376a.15.15,0,0,0,0,.19l2,2.42L828,381.12a.17.17,0,0,0,0,.19l2.12,2.57-2.39,2.48a.15.15,0,0,0,0,.2Z" style="fill:#bbc6cd"/><path d="M841.88,389.18l-2.67-2.52a.15.15,0,0,1,0-.2l2.3-2.63-2.37-2.45a.14.14,0,0,1,0-.19l2.13-2.65L839,376.35a.15.15,0,0,1,0-.2l2-2.31-2.13-2.37a.15.15,0,0,1,0-.2l1.94-2.11-2-2a.15.15,0,0,1,0-.2l1.85-2.12-2-2.12a.14.14,0,0,1,0-.19l1.77-2.11-1.81-1.86a.15.15,0,0,1,0-.2l1.6-1.86-1.7-1.87a.14.14,0,0,1,0-.19l1.55-1.63L838.39,351a.15.15,0,0,1,0-.19l1.53-1.9-1.63-1.78a.15.15,0,0,1,0-.19l1.46-1.85-1.51-1.74a.15.15,0,0,1,0-.18l1.31-1.67-1.42-1.89.23-.17,1.49,2a.14.14,0,0,1,0,.17l-1.31,1.66,1.5,1.74a.15.15,0,0,1,0,.19L838.58,347l1.62,1.79a.14.14,0,0,1,0,.18l-1.53,1.91,1.68,1.9a.15.15,0,0,1,0,.2l-1.55,1.62,1.7,1.86a.14.14,0,0,1,0,.19l-1.6,1.86,1.81,1.86a.13.13,0,0,1,0,.19L839,362.65l2,2.12a.14.14,0,0,1,0,.19l-1.84,2.12,2,2a.14.14,0,0,1,0,.2l-1.95,2.11,2.13,2.37a.14.14,0,0,1,0,.19l-2,2.31,2.21,2.19a.15.15,0,0,1,0,.19l-2.14,2.65,2.38,2.46a.14.14,0,0,1,0,.19l-2.29,2.63,2.56,2.43Z" style="fill:#bbc6cd"/><path d="M827.73,389.18l2.67-2.52a.15.15,0,0,0,0-.2l-2.3-2.63,2.37-2.45a.14.14,0,0,0,0-.19l-2.13-2.65,2.21-2.19a.15.15,0,0,0,0-.2l-2-2.31,2.13-2.37a.15.15,0,0,0,0-.2l-1.94-2.11,2-2a.15.15,0,0,0,0-.2L829,364.87l2-2.12a.14.14,0,0,0,0-.19l-1.77-2.11,1.81-1.86a.15.15,0,0,0,0-.2l-1.6-1.86,1.7-1.87a.13.13,0,0,0,0-.19l-1.54-1.63,1.67-1.89a.15.15,0,0,0,0-.19l-1.53-1.9,1.63-1.78a.15.15,0,0,0,0-.19L829.87,345l1.51-1.74a.15.15,0,0,0,0-.18l-1.31-1.67,1.42-1.89-.23-.17-1.49,2a.14.14,0,0,0,0,.17l1.31,1.66-1.5,1.74a.15.15,0,0,0,0,.19L831,347l-1.62,1.79a.14.14,0,0,0,0,.18l1.53,1.91-1.68,1.9a.15.15,0,0,0,0,.2l1.54,1.62-1.69,1.86a.14.14,0,0,0,0,.19l1.6,1.86-1.82,1.86a.14.14,0,0,0,0,.19l1.77,2.12-2,2.12a.14.14,0,0,0,0,.19l1.84,2.12-2,2a.14.14,0,0,0,0,.2l1.95,2.11-2.13,2.37a.14.14,0,0,0,0,.19l2,2.31-2.21,2.19a.15.15,0,0,0,0,.19l2.14,2.65-2.38,2.46a.14.14,0,0,0,0,.19l2.29,2.63L827.54,389Z" style="fill:#99a6ae"/><rect x="834.56" y="254.35" width="0.49" height="83.61" style="fill:#6c7f86"/><polygon points="837.28 254.79 832.53 258.87 832.33 258.71 837.08 254.62 837.28 254.79" style="fill:#b3191b"/><polygon points="832.33 254.79 837.08 258.87 837.28 258.71 832.53 254.62 832.33 254.79" style="fill:#d71d1d"/><polygon points="837.28 258.97 832.53 263.06 832.33 262.89 837.08 258.8 837.28 258.97" style="fill:#b3191b"/><polygon points="832.33 258.97 837.08 263.06 837.28 262.89 832.53 258.8 832.33 258.97" style="fill:#d71d1d"/><polygon points="837.28 263.15 832.53 267.24 832.33 267.07 837.08 262.99 837.28 263.15" style="fill:#b3191b"/><polygon points="832.33 263.15 837.08 267.24 837.28 267.07 832.53 262.99 832.33 263.15" style="fill:#d71d1d"/><polygon points="837.28 267.34 832.53 271.43 832.33 271.26 837.08 267.17 837.28 267.34" style="fill:#b3191b"/><polygon points="832.33 267.34 837.08 271.43 837.28 271.26 832.53 267.17 832.33 267.34" style="fill:#d71d1d"/><polygon points="837.28 271.52 832.53 275.61 832.33 275.44 837.08 271.35 837.28 271.52" style="fill:#b3191b"/><polygon points="832.33 271.52 837.08 275.61 837.28 275.44 832.53 271.35 832.33 271.52" style="fill:#d71d1d"/><polygon points="837.28 275.71 832.53 279.79 832.33 279.63 837.08 275.54 837.28 275.71" style="fill:#b3191b"/><polygon points="832.33 275.71 837.08 279.79 837.28 279.63 832.53 275.54 832.33 275.71" style="fill:#d71d1d"/><polygon points="837.28 279.89 832.53 283.98 832.33 283.81 837.08 279.72 837.28 279.89" style="fill:#b3191b"/><polygon points="832.33 279.89 837.08 283.98 837.28 283.81 832.53 279.72 832.33 279.89" style="fill:#d71d1d"/><polygon points="837.28 284.07 832.53 288.16 832.33 287.99 837.08 283.91 837.28 284.07" style="fill:#b3191b"/><polygon points="832.33 284.07 837.08 288.16 837.28 287.99 832.53 283.91 832.33 284.07" style="fill:#d71d1d"/><polygon points="837.28 288.26 832.53 292.35 832.33 292.18 837.08 288.09 837.28 288.26" style="fill:#b3191b"/><polygon points="832.33 288.26 837.08 292.35 837.28 292.18 832.53 288.09 832.33 288.26" style="fill:#d71d1d"/><polygon points="837.28 292.44 832.53 296.53 832.33 296.36 837.08 292.27 837.28 292.44" style="fill:#b3191b"/><polygon points="832.33 292.44 837.08 296.53 837.28 296.36 832.53 292.27 832.33 292.44" style="fill:#d71d1d"/><polygon points="837.28 296.63 832.53 300.71 832.33 300.54 837.08 296.46 837.28 296.63" style="fill:#b3191b"/><polygon points="832.33 296.63 837.08 300.71 837.28 300.54 832.53 296.46 832.33 296.63" style="fill:#d71d1d"/><polygon points="837.28 300.81 832.53 304.9 832.33 304.73 837.08 300.64 837.28 300.81" style="fill:#b3191b"/><polygon points="832.33 300.81 837.08 304.9 837.28 304.73 832.53 300.64 832.33 300.81" style="fill:#d71d1d"/><polygon points="837.28 304.99 832.53 309.08 832.33 308.91 837.08 304.82 837.28 304.99" style="fill:#b3191b"/><polygon points="832.33 304.99 837.08 309.08 837.28 308.91 832.53 304.82 832.33 304.99" style="fill:#d71d1d"/><polygon points="837.28 309.18 832.53 313.26 832.33 313.1 837.08 309.01 837.28 309.18" style="fill:#b3191b"/><polygon points="832.33 309.18 837.08 313.26 837.28 313.1 832.53 309.01 832.33 309.18" style="fill:#d71d1d"/><polygon points="837.28 313.36 832.53 317.45 832.33 317.28 837.08 313.19 837.28 313.36" style="fill:#b3191b"/><polygon points="832.33 313.36 837.08 317.45 837.28 317.28 832.53 313.19 832.33 313.36" style="fill:#d71d1d"/><polygon points="837.28 317.55 832.53 321.63 832.33 321.46 837.08 317.38 837.28 317.55" style="fill:#b3191b"/><polygon points="832.33 317.55 837.08 321.63 837.28 321.46 832.53 317.38 832.33 317.55" style="fill:#d71d1d"/><polygon points="837.28 321.73 832.53 325.82 832.33 325.65 837.08 321.56 837.28 321.73" style="fill:#b3191b"/><polygon points="832.33 321.73 837.08 325.82 837.28 325.65 832.53 321.56 832.33 321.73" style="fill:#d71d1d"/><polygon points="837.28 325.91 832.53 330 832.33 329.83 837.08 325.74 837.28 325.91" style="fill:#b3191b"/><polygon points="832.33 325.91 837.08 330 837.28 329.83 832.53 325.74 832.33 325.91" style="fill:#d71d1d"/><polygon points="837.28 330.1 832.53 334.18 832.33 334.01 837.08 329.93 837.28 330.1" style="fill:#b3191b"/><polygon points="832.33 330.1 837.08 334.18 837.28 334.01 832.53 329.93 832.33 330.1" style="fill:#d71d1d"/><polygon points="837.28 334.28 832.53 338.37 832.33 338.2 837.08 334.11 837.28 334.28" style="fill:#b3191b"/><polygon points="832.33 334.28 837.08 338.37 837.28 338.2 832.53 334.11 832.33 334.28" style="fill:#d71d1d"/><polygon points="835.05 254.35 834.56 254.35 834.74 252.21 834.88 252.21 835.05 254.35" style="fill:#6c7f86"/><polygon points="837.4 254.35 837.16 254.35 835.48 252.21 835.55 252.21 837.4 254.35" style="fill:#d71d1d"/><polygon points="832.21 254.35 832.45 254.35 834.13 252.21 834.06 252.21 832.21 254.35" style="fill:#b3191b"/><rect x="834.06" y="251.98" width="1.49" height="0.22" style="fill:#99a6ae"/><path d="M835.34,252l-.49-17.64a0,0,0,0,0-.09,0L834.27,252Z" style="fill:#bbc6cd"/><path d="M833.87,234.62a10.25,10.25,0,0,1,1.87-.62,9.54,9.54,0,0,1-1.87.62Z" style="fill:#4b5964"/><path d="M835.74,234.62a9.54,9.54,0,0,1-1.87-.62,10.25,10.25,0,0,1,1.87.62Z" style="fill:#4b5964"/><rect x="832.21" y="254.35" width="5.19" height="0.46" style="fill:#961817"/><rect x="832.21" y="258.54" width="5.19" height="0.46" style="fill:#961817"/><rect x="832.21" y="262.72" width="5.19" height="0.46" style="fill:#961817"/><rect x="832.21" y="266.91" width="5.19" height="0.46" style="fill:#961817"/><rect x="832.21" y="271.09" width="5.19" height="0.46" style="fill:#961817"/><rect x="832.21" y="275.28" width="5.19" height="0.46" style="fill:#961817"/><rect x="832.21" y="279.46" width="5.19" height="0.46" style="fill:#b3191b"/><rect x="832.21" y="283.65" width="5.19" height="0.46" style="fill:#961817"/><rect x="832.21" y="287.83" width="5.19" height="0.46" style="fill:#961817"/><rect x="832.21" y="292.02" width="5.19" height="0.46" style="fill:#961817"/><rect x="832.21" y="296.2" width="5.19" height="0.46" style="fill:#961817"/><rect x="832.21" y="300.39" width="5.19" height="0.46" style="fill:#961817"/><rect x="832.21" y="304.57" width="5.19" height="0.46" style="fill:#961817"/><rect x="832.21" y="308.76" width="5.19" height="0.46" style="fill:#961817"/><rect x="832.21" y="312.94" width="5.19" height="0.46" style="fill:#961817"/><rect x="832.21" y="317.13" width="5.19" height="0.46" style="fill:#961817"/><rect x="832.21" y="321.31" width="5.19" height="0.46" style="fill:#961817"/><rect x="832.21" y="325.5" width="5.19" height="0.46" style="fill:#961817"/><rect x="832.21" y="329.68" width="5.19" height="0.46" style="fill:#961817"/><rect x="832.21" y="333.87" width="5.19" height="0.46" style="fill:#961817"/><rect x="837.16" y="254.35" width="0.24" height="83.61" style="fill:#d71d1d"/><rect x="832.21" y="254.35" width="0.24" height="83.61" transform="translate(1664.66 592.32) rotate(180)" style="fill:#b3191b"/><rect x="834.56" y="338.91" width="0.49" height="49.92" style="fill:#6c7f86"/><polygon points="837.28 339.45 832.53 344.09 832.33 343.9 837.08 339.26 837.28 339.45" style="fill:#b3191b"/><polygon points="832.33 339.45 837.08 344.09 837.28 343.9 832.53 339.26 832.33 339.45" style="fill:#d71d1d"/><polygon points="837.28 344.28 832.53 349.08 832.33 348.88 837.08 344.09 837.28 344.28" style="fill:#b3191b"/><polygon points="832.33 344.28 837.08 349.08 837.28 348.88 832.53 344.09 832.33 344.28" style="fill:#d71d1d"/><polygon points="837.28 349.28 832.53 354.08 832.33 353.88 837.08 349.08 837.28 349.28" style="fill:#b3191b"/><polygon points="832.33 349.28 837.08 354.08 837.28 353.88 832.53 349.08 832.33 349.28" style="fill:#d71d1d"/><polygon points="837.28 354.28 832.53 359.08 832.33 358.88 837.08 354.08 837.28 354.28" style="fill:#b3191b"/><polygon points="832.33 354.28 837.08 359.08 837.28 358.88 832.53 354.08 832.33 354.28" style="fill:#d71d1d"/><polygon points="837.28 359.27 832.53 364.07 832.33 363.87 837.08 359.08 837.28 359.27" style="fill:#b3191b"/><polygon points="832.33 359.27 837.08 364.07 837.28 363.87 832.53 359.08 832.33 359.27" style="fill:#d71d1d"/><polygon points="837.28 364.27 832.53 369.07 832.33 368.87 837.08 364.07 837.28 364.27" style="fill:#b3191b"/><polygon points="832.33 364.27 837.08 369.07 837.28 368.87 832.53 364.07 832.33 364.27" style="fill:#d71d1d"/><polygon points="837.28 369.27 832.53 374.06 832.33 373.87 837.08 369.07 837.28 369.27" style="fill:#b3191b"/><polygon points="832.33 369.27 837.08 374.06 837.28 373.87 832.53 369.07 832.33 369.27" style="fill:#d71d1d"/><polygon points="837.28 374.26 832.53 379.06 832.33 378.86 837.08 374.06 837.28 374.26" style="fill:#b3191b"/><polygon points="832.33 374.26 837.08 379.06 837.28 378.86 832.53 374.06 832.33 374.26" style="fill:#d71d1d"/><polygon points="837.28 379.26 832.53 384.06 832.33 383.86 837.08 379.06 837.28 379.26" style="fill:#b3191b"/><polygon points="832.33 379.26 837.08 384.06 837.28 383.86 832.53 379.06 832.33 379.26" style="fill:#d71d1d"/><polygon points="837.28 384.25 832.53 389.05 832.33 388.86 837.08 384.06 837.28 384.25" style="fill:#b3191b"/><polygon points="832.33 384.25 837.08 389.05 837.28 388.86 832.53 384.06 832.33 384.25" style="fill:#d71d1d"/><rect x="831.29" y="343.86" width="7.03" height="0.46" style="fill:#961817"/><rect x="831.22" y="348.85" width="7.18" height="0.46" style="fill:#961817"/><rect x="831.06" y="353.85" width="7.5" height="0.46" style="fill:#961817"/><rect x="830.97" y="358.85" width="7.67" height="0.46" style="fill:#961817"/><rect x="830.83" y="363.84" width="7.96" height="0.46" style="fill:#961817"/><rect x="830.65" y="368.84" width="8.31" height="0.46" style="fill:#961817"/><rect x="830.51" y="373.84" width="8.58" height="0.46" style="fill:#961817"/><rect x="830.46" y="378.83" width="8.69" height="0.46" style="fill:#961817"/><rect x="830.27" y="383.83" width="9.08" height="0.46" style="fill:#961817"/><rect x="837.16" y="338.91" width="0.24" height="49.92" style="fill:#d71d1d"/><rect x="832.21" y="338.91" width="0.24" height="49.92" transform="translate(1664.66 727.73) rotate(180)" style="fill:#b3191b"/><rect x="829.72" y="338.91" width="10.16" height="0.71" style="fill:#99a6ae"/><rect x="838.37" y="326.55" width="0.14" height="4.24" style="fill:#99a6ae"/><rect x="837.66" y="321.69" width="0.14" height="0.65" transform="translate(1159.74 -515.71) rotate(90)" style="fill:#4b5964"/><rect x="837.66" y="324.45" width="0.14" height="0.65" transform="translate(1162.5 -512.95) rotate(90)" style="fill:#4b5964"/><rect x="838.05" y="320.2" width="0.79" height="6.35" rx="0.39" style="fill:#99a6ae"/><rect x="831.1" y="326.55" width="0.14" height="4.24" transform="translate(1662.33 657.35) rotate(180)" style="fill:#99a6ae"/><rect x="831.82" y="321.69" width="0.14" height="0.65" transform="translate(1153.9 -509.87) rotate(90)" style="fill:#4b5964"/><rect x="831.82" y="324.45" width="0.14" height="0.65" transform="translate(1156.66 -507.11) rotate(90)" style="fill:#4b5964"/><rect x="830.77" y="320.2" width="0.79" height="6.35" rx="0.39" transform="translate(1662.33 646.75) rotate(-180)" style="fill:#99a6ae"/><polygon points="838.37 331.69 831.24 331.69 831.24 332.32 838.56 332.32 838.37 331.69" style="fill:#99a6ae"/><polygon points="831.24 331.69 829.4 337.96 830.05 337.96 831.88 331.69 831.24 331.69" style="fill:#99a6ae"/><polygon points="841.73 388.82 839.45 339.62 839.88 339.62 842.17 388.82 841.73 388.82" style="fill:#bbc6cd"/><polygon points="827.88 388.82 830.16 339.62 829.73 339.62 827.44 388.82 827.88 388.82" style="fill:#99a6ae"/><polygon points="839.19 388.82 838.01 339.62 838.45 339.62 839.63 388.82 839.19 388.82" style="fill:#99a6ae"/><polygon points="830.42 388.82 831.6 339.62 831.16 339.62 829.98 388.82 830.42 388.82" style="fill:#bbc6cd"/><polygon points="844.07 390.49 825.54 390.49 825.98 388.82 843.63 388.82 843.92 389.94 844.07 390.49" style="fill:#dae2e5"/><path d="M839.6,291.92c.23,1.6-.12,3-.79,3.07s-1.41-1.12-1.65-2.72.12-3,.79-3.07S839.36,290.32,839.6,291.92Z" style="fill:#b6c1c7"/><path d="M839.47,291.94c.21,1.42-.07,2.65-.63,2.73s-1.18-1-1.39-2.44.07-2.65.63-2.73S839.26,290.51,839.47,291.94Z" style="fill:#e4e9ec"/><path d="M838.36,292.1c.13.88,0,1.63-.22,1.67s-.56-.65-.69-1.54,0-1.63.22-1.66S838.23,291.22,838.36,292.1Z" style="fill:#dae2e5;mix-blend-mode:multiply;opacity:0.7000000000000001"/><path d="M838.81,295c-1.2.18-2.3-1.31-2.49-2.61s.41-3,1.63-3.18c-.67.1-1,1.48-.79,3.07S838.14,295.09,838.81,295Z" style="fill:#708088"/><path d="M837.76,292.24s0,0,0-.05,0-.05,0-.05l3-.43s0,0,0,0,0,.05,0,.05l-2.94.43Z" style="fill:#b6c1c7"/><path d="M840.7,291.8h0l-3.06-1a0,0,0,0,1,0-.06,0,0,0,0,1,.06,0l3.06,1a0,0,0,0,1,0,.06A0,0,0,0,1,840.7,291.8Z" style="fill:#b6c1c7"/><path d="M838.06,293.63l0,0a0,0,0,0,1,0-.07l2.65-1.83a0,0,0,0,1,.06,0,0,0,0,0,1,0,.06l-2.64,1.83Z" style="fill:#b6c1c7"/><ellipse cx="831.03" cy="277.66" rx="2.62" ry="1.1" transform="translate(470.94 1076.44) rotate(-84.21)" style="fill:#b6c1c7"/><path d="M830.05,277.57c-.13,1.28.17,2.36.67,2.41s1-1,1.15-2.23-.17-2.37-.67-2.42S830.18,276.28,830.05,277.57Z" style="fill:#e4e9ec"/><path d="M830.77,280.27c1.08.11,2-1.27,2.11-2.44s-.49-2.66-1.58-2.77c.6.06,1,1.28.82,2.71S831.37,280.33,830.77,280.27Z" style="fill:#708088"/><path d="M830.77,277.64c-.11,1,.06,1.86.36,1.89s.63-.77.74-1.78-.06-1.86-.37-1.89S830.87,276.62,830.77,277.64Z" style="fill:#dae2e5;mix-blend-mode:multiply;opacity:0.7000000000000001"/><path d="M831.59,277.77h0l-2.66-.27s0,0,0-.05a.05.05,0,0,1,.05-.05l2.65.27a.06.06,0,0,1,0,.06S831.61,277.77,831.59,277.77Z" style="fill:#b6c1c7"/><path d="M828.94,277.5a.05.05,0,0,1-.05,0,.06.06,0,0,1,0-.06l2.7-1a0,0,0,1,1,0,.09l-2.69,1Z" style="fill:#b6c1c7"/><path d="M831.38,279h0l-2.44-1.53a0,0,0,0,1,0-.06,0,0,0,0,1,.06,0l2.44,1.53a0,0,0,0,1,0,.06A.05.05,0,0,1,831.38,279Z" style="fill:#b6c1c7"/><path d="M839.2,265.49c0,1.05-.29,1.91-.73,1.93s-.83-.82-.87-1.88.29-1.91.73-1.93S839.16,264.43,839.2,265.49Z" style="fill:#b6c1c7"/><path d="M839.11,265.49c0,.94-.23,1.71-.6,1.72s-.69-.73-.72-1.67.23-1.71.6-1.73S839.08,264.55,839.11,265.49Z" style="fill:#e4e9ec"/><path d="M838.47,267.42c-.79,0-1.39-1-1.42-1.87s.48-1.91,1.28-1.94c-.44,0-.77.88-.73,1.93S838,267.44,838.47,267.42Z" style="fill:#708088"/><path d="M838.58,265.51c0,.71-.13,1.29-.35,1.3s-.41-.56-.44-1.27.13-1.3.35-1.3S838.55,264.8,838.58,265.51Z" style="fill:#dae2e5;mix-blend-mode:multiply;opacity:0.7000000000000001"/><path d="M838,265.58a.05.05,0,0,1,0-.1l1.94-.07a.05.05,0,0,1,0,.1l-1.94.07Z" style="fill:#b6c1c7"/><path d="M839.93,265.51h0l-1.91-.85a.05.05,0,0,1,0-.07.06.06,0,0,1,.07,0l1.91.85a.06.06,0,0,1,0,.07S840,265.51,839.93,265.51Z" style="fill:#b6c1c7"/><path d="M838.09,266.5l-.05,0a.06.06,0,0,1,0-.07l1.85-1s.05,0,.06,0a0,0,0,0,1,0,.06l-1.84,1Z" style="fill:#b6c1c7"/><path d="M838.42,259c0,.6-.16,1.09-.41,1.1s-.47-.47-.5-1.06.17-1.09.42-1.1S838.4,258.42,838.42,259Z" style="fill:#b6c1c7"/><path d="M838.37,259c0,.54-.13,1-.34,1s-.39-.41-.41-.95.13-1,.34-1S838.35,258.49,838.37,259Z" style="fill:#e4e9ec"/><path d="M838,260.12c-.45,0-.79-.57-.81-1.06s.27-1.09.73-1.1c-.25,0-.44.5-.42,1.1S837.76,260.13,838,260.12Z" style="fill:#708088"/><path d="M837.74,259.1a0,0,0,0,1,0-.05,0,0,0,0,1,0-.05l1.11,0h0s0,0,0,.05a0,0,0,0,1,0,0l-1.1.05Z" style="fill:#b6c1c7"/><path d="M838.84,259.05h0l-1.09-.49a0,0,0,1,1,0-.08l1.09.48a.06.06,0,0,1,0,.07A.05.05,0,0,1,838.84,259.05Z" style="fill:#b6c1c7"/><path d="M837.79,259.62l0,0s0-.06,0-.07l1-.57a.05.05,0,0,1,.05.09l-1.05.56Z" style="fill:#b6c1c7"/><path d="M838.09,259c0,.42-.08.76-.21.77s-.24-.33-.26-.75.08-.75.21-.76S838.07,258.62,838.09,259Z" style="fill:#dae2e5;mix-blend-mode:multiply;opacity:0.7000000000000001"/><path d="M831.11,260.36c0,.59.16,1.09.41,1.1s.47-.47.49-1.07-.16-1.09-.41-1.1S831.13,259.76,831.11,260.36Z" style="fill:#b6c1c7"/><path d="M831.16,260.36c0,.53.13,1,.34,1s.39-.42.41-.95-.13-1-.34-1S831.17,259.82,831.16,260.36Z" style="fill:#e4e9ec"/><path d="M831.52,261.46c.45,0,.79-.58.81-1.07s-.27-1.08-.73-1.1c.25,0,.44.5.41,1.1S831.77,261.47,831.52,261.46Z" style="fill:#708088"/><path d="M831.38,260.37c0,.43.09.78.24.79s.27-.34.29-.77-.09-.79-.24-.8S831.4,259.93,831.38,260.37Z" style="fill:#dae2e5;mix-blend-mode:multiply;opacity:0.7000000000000001"/><path d="M831.79,260.43h0l-1.1,0a0,0,0,0,1-.05-.05s0,0,.05,0l1.1,0a.05.05,0,0,1,.05.05A0,0,0,0,1,831.79,260.43Z" style="fill:#b6c1c7"/><path d="M830.69,260.39s0,0,0,0a0,0,0,0,1,0-.06l1.09-.49a0,0,0,0,1,.06,0,.06.06,0,0,1,0,.07l-1.09.48Z" style="fill:#b6c1c7"/><path d="M831.74,261h0l-1.05-.57a0,0,0,0,1,0-.06,0,0,0,0,1,.06,0l1,.56a.07.07,0,0,1,0,.07S831.76,261,831.74,261Z" style="fill:#b6c1c7"/><path d="M826.17,369.67c-.17,1.28.11,2.37.65,2.45s1.11-.9,1.29-2.18-.12-2.36-.65-2.44S826.35,368.4,826.17,369.67Z" style="fill:#b6c1c7"/><path d="M826.28,369.69c-.16,1.14.07,2.11.51,2.17s.93-.81,1.09-1.95-.08-2.1-.52-2.17S826.43,368.55,826.28,369.69Z" style="fill:#e4e9ec"/><path d="M826.82,372.12c1,.13,1.82-1.07,2-2.1s-.35-2.38-1.32-2.52c.53.08.82,1.17.65,2.44S827.35,372.19,826.82,372.12Z" style="fill:#708088"/><path d="M827,369.79c-.12.81,0,1.49.24,1.53s.54-.6.65-1.41,0-1.49-.24-1.53S827.1,369,827,369.79Z" style="fill:#dae2e5;mix-blend-mode:multiply;opacity:0.7000000000000001"/><path d="M827.63,369.93h0l-2.35-.32s0,0,0-.05,0-.05.06,0l2.34.32s.05,0,0,.05A0,0,0,0,1,827.63,369.93Z" style="fill:#b6c1c7"/><path d="M825.29,369.6a0,0,0,1,1,0-.09l2.42-.81a0,0,0,0,1,.06,0,0,0,0,0,1,0,.06l-2.42.81Z" style="fill:#b6c1c7"/><path d="M827.41,371h0l-2.12-1.44s0,0,0-.06a.05.05,0,0,1,.07,0l2.11,1.44a0,0,0,0,1,0,.06A.05.05,0,0,1,827.41,371Z" style="fill:#b6c1c7"/><path d="M838.42,272.38c0,.6-.16,1.09-.41,1.1s-.47-.47-.5-1.07.17-1.09.42-1.1S838.4,271.78,838.42,272.38Z" style="fill:#b6c1c7"/><path d="M838.37,272.38c0,.53-.13,1-.34,1s-.39-.42-.41-.95.13-1,.34-1S838.35,271.85,838.37,272.38Z" style="fill:#e4e9ec"/><path d="M838,273.48c-.45,0-.79-.58-.81-1.06s.27-1.09.73-1.11c-.25,0-.44.51-.42,1.1S837.76,273.49,838,273.48Z" style="fill:#708088"/><path d="M838.17,272.39c0,.39-.09.71-.25.72s-.28-.31-.3-.7.1-.71.25-.72S838.16,272,838.17,272.39Z" style="fill:#dae2e5;mix-blend-mode:multiply;opacity:0.7000000000000001"/><path d="M837.74,272.45a0,0,0,1,1,0-.09l1.11,0s0,0,0,0a0,0,0,0,1,0,.05l-1.1,0Z" style="fill:#b6c1c7"/><path d="M838.84,272.41h0l-1.09-.49a0,0,0,0,1,0-.06,0,0,0,0,1,.06,0l1.09.49a0,0,0,0,1,0,.06S838.86,272.41,838.84,272.41Z" style="fill:#b6c1c7"/><path d="M837.79,273s0,0,0,0a0,0,0,0,1,0-.06l1-.57a.06.06,0,0,1,.07,0,.07.07,0,0,1,0,.07l-1.05.56Z" style="fill:#b6c1c7"/><path d="M838.42,282c0,.6-.16,1.09-.41,1.1s-.47-.47-.5-1.07.17-1.09.42-1.1S838.4,281.41,838.42,282Z" style="fill:#b6c1c7"/><path d="M838.37,282c0,.53-.13,1-.34,1s-.39-.42-.41-.95.13-1,.34-1S838.35,281.48,838.37,282Z" style="fill:#e4e9ec"/><path d="M838,283.11c-.45,0-.79-.58-.81-1.06s.27-1.09.73-1.11c-.25,0-.44.5-.42,1.1S837.76,283.12,838,283.11Z" style="fill:#708088"/><path d="M838.09,282c0,.37-.08.67-.21.67s-.24-.29-.26-.65.08-.67.21-.67S838.08,281.65,838.09,282Z" style="fill:#dae2e5;mix-blend-mode:multiply;opacity:0.7000000000000001"/><path d="M837.74,282.08a0,0,0,1,1,0-.09l1.11-.05h0s0,0,0,.05a0,0,0,0,1,0,.05l-1.1,0Z" style="fill:#b6c1c7"/><path d="M838.84,282h0l-1.09-.49a0,0,0,0,1,0-.06,0,0,0,0,1,.06,0l1.09.49a0,0,0,0,1,0,.06S838.86,282,838.84,282Z" style="fill:#b6c1c7"/><path d="M837.79,282.61s0,0,0,0a0,0,0,0,1,0-.06l1-.57a.06.06,0,0,1,.07,0,0,0,0,0,1,0,.06l-1.05.57Z" style="fill:#b6c1c7"/><path d="M838.42,256.08c0,.6-.16,1.09-.41,1.1s-.47-.47-.5-1.06.17-1.09.42-1.1S838.4,255.49,838.42,256.08Z" style="fill:#b6c1c7"/><path d="M838.37,256.09c0,.53-.13,1-.34,1s-.39-.41-.41-.95.13-1,.34-1S838.35,255.55,838.37,256.09Z" style="fill:#e4e9ec"/><path d="M838,257.18c-.45,0-.79-.57-.81-1.06s.27-1.09.73-1.1c-.25,0-.44.5-.42,1.1S837.76,257.19,838,257.18Z" style="fill:#708088"/><path d="M838.11,256.1c0,.41-.08.75-.22.76s-.25-.33-.27-.75.08-.75.22-.76S838.09,255.68,838.11,256.1Z" style="fill:#dae2e5;mix-blend-mode:multiply;opacity:0.7000000000000001"/><path d="M837.74,256.16a0,0,0,0,1,0-.05,0,0,0,0,1,0-.05l1.11,0s0,0,0,.05a.05.05,0,0,1,0,.05l-1.1,0Z" style="fill:#b6c1c7"/><path d="M838.84,256.12h0l-1.09-.48a.06.06,0,0,1,0-.07,0,0,0,0,1,.06,0l1.09.48a.06.06,0,0,1,0,.07S838.86,256.12,838.84,256.12Z" style="fill:#b6c1c7"/><path d="M837.79,256.68l0,0s0-.06,0-.07l1-.56a0,0,0,0,1,.07,0,0,0,0,0,1,0,.06l-1.05.57Z" style="fill:#b6c1c7"/><path d="M830.37,291.88c-.12,1.16.18,2.14.67,2.19s1-.85,1.09-2-.18-2.15-.66-2.2S830.49,290.72,830.37,291.88Z" style="fill:#b6c1c7"/><path d="M830.46,291.89c-.1,1,.14,1.91.54,1.95s.82-.77.93-1.8-.14-1.91-.54-2S830.57,290.85,830.46,291.89Z" style="fill:#e4e9ec"/><path d="M831.19,292c-.07.71,0,1.3.24,1.32s.42-.53.5-1.24,0-1.3-.24-1.32S831.27,291.26,831.19,292Z" style="fill:#dae2e5;mix-blend-mode:multiply;opacity:0.7000000000000001"/><path d="M831,294.07c.87.09,1.61-1,1.71-2s-.4-2.16-1.28-2.25c.48.05.78,1,.66,2.2S831.52,294.12,831,294.07Z" style="fill:#708088"/><path d="M831.7,292.06h0l-2.14-.21s0,0,0-.06a0,0,0,0,1,.05,0l2.14.22a0,0,0,1,1,0,.09Z" style="fill:#b6c1c7"/><path d="M829.56,291.85s0,0,0,0a0,0,0,0,1,0-.06l2.17-.81s.06,0,.06,0a0,0,0,0,1,0,.06l-2.18.81Z" style="fill:#b6c1c7"/><path d="M831.53,293.08h0l-2-1.23a.06.06,0,0,1,0-.07,0,0,0,0,1,.07,0l2,1.23a0,0,0,0,1,0,.07Z" style="fill:#b6c1c7"/><path d="M841.27,358.32c-.64,0-1,2-.88,4.34s.8,4.23,1.44,4.19h0l.76-.05c.55,0,.91-1.46.91-3.34,0-.32,0-.66,0-1-.16-2.36-.8-4.24-1.45-4.19Z" style="fill:#708088"/><path d="M843.47,362.46c.15,2.35-.24,4.3-.88,4.34s-1.29-1.84-1.44-4.19.23-4.3.87-4.34S843.31,360.1,843.47,362.46Z" style="fill:#b6c1c7"/><path d="M843.34,362.46c.14,2.1-.18,3.84-.71,3.87s-1.07-1.64-1.21-3.74.18-3.83.71-3.86S843.2,360.37,843.34,362.46Z" style="fill:#e4e9ec"/><path d="M832.39,297.72c.48,0,.78,1.51.66,3.29s-.61,3.21-1.09,3.17h0l-.57,0c-.42,0-.7-1.11-.7-2.53,0-.25,0-.5,0-.76.12-1.79.61-3.21,1.09-3.18Z" style="fill:#708088"/><path d="M830.72,300.86c-.12,1.78.18,3.25.67,3.29s1-1.39,1.09-3.18-.18-3.25-.67-3.29S830.84,299.07,830.72,300.86Z" style="fill:#b6c1c7"/><path d="M830.81,300.86c-.1,1.59.14,2.9.54,2.93s.81-1.24.92-2.83-.14-2.9-.54-2.93S830.92,299.27,830.81,300.86Z" style="fill:#e4e9ec"/><rect x="837.4" y="261.62" width="1.74" height="0.17" style="fill:#4b5964"/><rect x="839.14" y="260.26" width="0.14" height="2.87" style="fill:#4b5964"/><rect x="830.47" y="256.66" width="1.74" height="0.17" transform="translate(1662.68 513.49) rotate(180)" style="fill:#4b5964"/><rect x="830.32" y="255.31" width="0.14" height="2.87" transform="translate(1660.79 513.49) rotate(180)" style="fill:#4b5964"/><rect x="837.4" y="269.37" width="1.74" height="0.17" style="fill:#4b5964"/><rect x="839.14" y="268.59" width="0.14" height="1.72" style="fill:#4b5964"/><rect x="830.85" y="265.55" width="1.36" height="0.17" transform="translate(1663.06 531.27) rotate(180)" style="fill:#4b5964"/><rect x="830.71" y="264.78" width="0.14" height="1.72" transform="translate(1661.56 531.27) rotate(180)" style="fill:#4b5964"/><rect x="830.85" y="273.34" width="1.36" height="0.17" transform="translate(1663.06 546.85) rotate(180)" style="fill:#4b5964"/><rect x="830.71" y="272.57" width="0.14" height="1.72" transform="translate(1661.56 546.85) rotate(180)" style="fill:#4b5964"/><rect x="830.85" y="281.99" width="1.36" height="0.17" transform="translate(1663.06 564.15) rotate(180)" style="fill:#4b5964"/><rect x="830.71" y="281.21" width="0.14" height="1.72" transform="translate(1661.56 564.15) rotate(180)" style="fill:#4b5964"/><rect x="837.4" y="277.72" width="1.74" height="0.17" style="fill:#4b5964"/><rect x="839.14" y="276.95" width="0.14" height="1.72" style="fill:#4b5964"/><rect x="837.4" y="285.95" width="1.74" height="0.17" style="fill:#4b5964"/><rect x="839.14" y="285.17" width="0.14" height="1.72" style="fill:#4b5964"/><rect x="828.24" y="337.96" width="13.13" height="1.36" style="fill:#bbc6cd"/><path d="M844.07,390.49H825.54l.44-1.67h2.3c-.32,1,.17,1.12,2.69,1.12h12.95Z" style="fill:#dae2e5;mix-blend-mode:multiply"/><rect x="828.24" y="339.01" width="13.13" height="0.31" style="fill:#6c7f86"/><rect x="828.24" y="337.96" width="13.13" height="0.15" style="fill:#e9ecef"/><rect x="234.54" y="282.7" width="0.64" height="17.94" style="fill:#5b6d76"/><rect x="235.79" y="282.7" width="0.64" height="17.94" style="fill:#5b6d76"/><rect x="237.13" y="282.7" width="0.64" height="17.94" style="fill:#5b6d76"/><rect x="238.25" y="282.7" width="0.64" height="17.94" style="fill:#5b6d76"/><rect x="250.88" y="282.7" width="0.64" height="17.94" transform="translate(502.4 583.34) rotate(180)" style="fill:#5b6d76"/><rect x="249.63" y="282.7" width="0.64" height="17.94" transform="translate(499.9 583.34) rotate(180)" style="fill:#5b6d76"/><rect x="248.29" y="282.7" width="0.64" height="17.94" transform="translate(497.21 583.34) rotate(180)" style="fill:#5b6d76"/><rect x="247.17" y="282.7" width="0.64" height="17.94" transform="translate(494.97 583.34) rotate(180)" style="fill:#5b6d76"/><polygon points="246.43 283.07 239.89 289.25 239.62 289 246.16 282.81 246.43 283.07" style="fill:#99a6ae"/><polygon points="239.62 283.07 246.16 289.25 246.43 289 239.89 282.81 239.62 283.07" style="fill:#bbc6cd"/><polygon points="246.43 289.52 239.89 295.71 239.62 295.45 246.16 289.27 246.43 289.52" style="fill:#99a6ae"/><polygon points="239.62 289.52 246.16 295.71 246.43 295.45 239.89 289.27 239.62 289.52" style="fill:#bbc6cd"/><polygon points="246.43 295.98 239.89 302.17 239.62 301.91 246.16 295.73 246.43 295.98" style="fill:#99a6ae"/><polygon points="239.62 295.98 246.16 302.17 246.43 301.91 239.89 295.73 239.62 295.98" style="fill:#bbc6cd"/><polygon points="246.43 302.44 239.89 308.62 239.62 308.37 246.16 302.18 246.43 302.44" style="fill:#99a6ae"/><polygon points="239.62 302.44 246.16 308.62 246.43 308.37 239.89 302.18 239.62 302.44" style="fill:#bbc6cd"/><polygon points="246.43 308.9 239.89 315.08 239.62 314.82 246.16 308.64 246.43 308.9" style="fill:#99a6ae"/><polygon points="239.62 308.9 246.16 315.08 246.43 314.82 239.89 308.64 239.62 308.9" style="fill:#bbc6cd"/><polygon points="246.43 315.35 239.89 321.54 239.62 321.28 246.16 315.1 246.43 315.35" style="fill:#99a6ae"/><polygon points="239.62 315.35 246.16 321.54 246.43 321.28 239.89 315.1 239.62 315.35" style="fill:#bbc6cd"/><polygon points="246.43 321.81 239.89 327.99 239.62 327.74 246.16 321.56 246.43 321.81" style="fill:#99a6ae"/><polygon points="239.62 321.81 246.16 327.99 246.43 327.74 239.89 321.56 239.62 321.81" style="fill:#bbc6cd"/><polygon points="246.43 328.27 239.89 334.45 239.62 334.2 246.16 328.01 246.43 328.27" style="fill:#99a6ae"/><polygon points="239.62 328.27 246.16 334.45 246.43 334.2 239.89 328.01 239.62 328.27" style="fill:#bbc6cd"/><polygon points="246.43 334.72 239.89 340.91 239.62 340.65 246.16 334.47 246.43 334.72" style="fill:#99a6ae"/><polygon points="239.62 334.72 246.16 340.91 246.43 340.65 239.89 334.47 239.62 334.72" style="fill:#bbc6cd"/><polygon points="246.43 341.18 239.89 347.36 239.62 347.11 246.16 340.93 246.43 341.18" style="fill:#99a6ae"/><polygon points="239.62 341.18 246.16 347.36 246.43 347.11 239.89 340.93 239.62 341.18" style="fill:#bbc6cd"/><polygon points="246.43 347.64 239.89 353.82 239.62 353.57 246.16 347.38 246.43 347.64" style="fill:#99a6ae"/><polygon points="239.62 347.64 246.16 353.82 246.43 353.57 239.89 347.38 239.62 347.64" style="fill:#bbc6cd"/><polygon points="246.43 354.09 239.89 360.28 239.62 360.02 246.16 353.84 246.43 354.09" style="fill:#99a6ae"/><polygon points="239.62 354.09 246.16 360.28 246.43 360.02 239.89 353.84 239.62 354.09" style="fill:#bbc6cd"/><polygon points="246.43 360.55 239.89 366.73 239.62 366.48 246.16 360.3 246.43 360.55" style="fill:#99a6ae"/><polygon points="239.62 360.55 246.16 366.73 246.43 366.48 239.89 360.3 239.62 360.55" style="fill:#bbc6cd"/><polygon points="246.43 367.01 239.89 373.19 239.62 372.94 246.16 366.75 246.43 367.01" style="fill:#99a6ae"/><polygon points="239.62 367.01 246.16 373.19 246.43 372.94 239.89 366.75 239.62 367.01" style="fill:#bbc6cd"/><polygon points="246.43 373.46 239.89 379.65 239.62 379.39 246.16 373.21 246.43 373.46" style="fill:#99a6ae"/><polygon points="239.62 373.46 246.16 379.65 246.43 379.39 239.89 373.21 239.62 373.46" style="fill:#bbc6cd"/><polygon points="246.43 379.92 239.89 386.11 239.62 385.85 246.16 379.67 246.43 379.92" style="fill:#99a6ae"/><polygon points="239.62 379.92 246.16 386.11 246.43 385.85 239.89 379.67 239.62 379.92" style="fill:#bbc6cd"/><polygon points="243.03 264.86 243.66 280.81 242.4 280.81 243.03 264.86" style="fill:#bbc6cd"/><rect x="246.2" y="282.6" width="0.46" height="106.49" style="fill:#bbc6cd"/><rect x="239.39" y="282.6" width="0.46" height="106.49" style="fill:#99a6ae"/><rect x="239.85" y="282.6" width="6.35" height="0.42" style="fill:#99a6ae"/><rect x="239.85" y="289.05" width="6.35" height="0.42" style="fill:#99a6ae"/><rect x="239.85" y="295.51" width="6.35" height="0.42" style="fill:#99a6ae"/><rect x="239.85" y="301.97" width="6.35" height="0.42" style="fill:#99a6ae"/><rect x="239.85" y="308.42" width="6.35" height="0.42" style="fill:#99a6ae"/><rect x="239.85" y="314.88" width="6.35" height="0.42" style="fill:#99a6ae"/><rect x="239.85" y="321.33" width="6.35" height="0.42" style="fill:#99a6ae"/><rect x="239.85" y="327.79" width="6.35" height="0.42" style="fill:#99a6ae"/><rect x="239.85" y="334.25" width="6.35" height="0.42" style="fill:#99a6ae"/><rect x="239.85" y="340.7" width="6.35" height="0.42" style="fill:#99a6ae"/><rect x="239.85" y="347.16" width="6.35" height="0.42" style="fill:#99a6ae"/><rect x="239.85" y="353.62" width="6.35" height="0.42" style="fill:#99a6ae"/><rect x="239.85" y="360.07" width="6.35" height="0.42" style="fill:#99a6ae"/><rect x="239.85" y="366.53" width="6.35" height="0.42" style="fill:#99a6ae"/><rect x="239.85" y="372.98" width="6.35" height="0.42" style="fill:#99a6ae"/><rect x="239.85" y="379.44" width="6.35" height="0.42" style="fill:#99a6ae"/><rect x="239.85" y="385.9" width="6.35" height="0.42" style="fill:#99a6ae"/><polygon points="248.15 389.08 237.91 389.08 237.35 390.49 248.7 390.49 248.15 389.08" style="fill:#dae2e5"/><polygon points="243.03 280.44 246.66 282.6 239.39 282.6 243.03 280.44" style="fill:#bbc6cd"/><path d="M238.55,305.52c1.38.1,2.3,3.45,2,7.48s-1.61,7.24-3,7.15h0l-1.64-.11c-1.19-.08-2-2.54-2.08-5.76,0-.56,0-1.13,0-1.72.27-4,1.6-7.24,3-7.14Z" style="fill:#708088"/><path d="M233.91,312.56c-.27,4,.64,7.39,2,7.48s2.74-3.11,3-7.15-.65-7.38-2-7.47S234.18,308.53,233.91,312.56Z" style="fill:#b6c1c7"/><path d="M234.18,312.58c-.24,3.6.5,6.58,1.65,6.65s2.28-2.78,2.52-6.37-.5-6.58-1.66-6.66S234.42,309,234.18,312.58Z" style="fill:#e4e9ec"/><rect x="248.61" y="347.83" width="0.23" height="7.08" style="fill:#99a6ae"/><rect x="247.22" y="338.89" width="0.3" height="1.41" transform="translate(586.97 92.23) rotate(90)" style="fill:#4b5964"/><rect x="247.22" y="344.89" width="0.3" height="1.41" transform="translate(592.97 98.23) rotate(90)" style="fill:#4b5964"/><rect x="248.07" y="337.24" width="1.31" height="10.59" rx="0.53" style="fill:#99a6ae"/><rect x="237.21" y="347.83" width="0.23" height="7.08" transform="translate(474.65 702.74) rotate(180)" style="fill:#99a6ae"/><rect x="238.54" y="338.89" width="0.3" height="1.41" transform="translate(578.28 100.91) rotate(90)" style="fill:#4b5964"/><rect x="238.54" y="344.89" width="0.3" height="1.41" transform="translate(584.28 106.91) rotate(90)" style="fill:#4b5964"/><rect x="236.67" y="337.24" width="1.31" height="10.59" rx="0.53" transform="translate(474.65 685.07) rotate(180)" style="fill:#99a6ae"/><rect x="246.66" y="282.6" width="4.86" height="0.21" style="fill:#b6c1c7"/><rect x="242.55" y="291.57" width="17.73" height="0.21" transform="translate(543.09 40.26) rotate(90)" style="fill:#b6c1c7"/><rect x="241.4" y="291.57" width="17.73" height="0.21" transform="translate(541.94 41.4) rotate(90)" style="fill:#b6c1c7"/><rect x="240.06" y="291.57" width="17.73" height="0.21" transform="translate(540.6 42.74) rotate(90)" style="fill:#b6c1c7"/><rect x="238.91" y="291.57" width="17.73" height="0.21" transform="translate(539.45 43.89) rotate(90)" style="fill:#b6c1c7"/><rect x="246.66" y="300.54" width="4.86" height="0.21" style="fill:#b6c1c7"/><path d="M246.66,300.75a2.65,2.65,0,0,0,4.86,0Z" style="fill:#708088"/><rect x="234.54" y="282.6" width="4.86" height="0.21" transform="translate(473.93 565.4) rotate(180)" style="fill:#b6c1c7"/><rect x="225.77" y="291.57" width="17.73" height="0.21" transform="translate(526.31 57.03) rotate(90)" style="fill:#b6c1c7"/><rect x="226.92" y="291.57" width="17.73" height="0.21" transform="translate(527.46 55.89) rotate(90)" style="fill:#b6c1c7"/><rect x="228.26" y="291.57" width="17.73" height="0.21" transform="translate(528.8 54.54) rotate(90)" style="fill:#b6c1c7"/><rect x="229.41" y="291.57" width="17.73" height="0.21" transform="translate(529.95 53.4) rotate(90)" style="fill:#b6c1c7"/><rect x="234.54" y="300.54" width="4.86" height="0.21" transform="translate(473.93 601.29) rotate(180)" style="fill:#b6c1c7"/><path d="M239.39,300.75a2.64,2.64,0,0,1-4.85,0Z" style="fill:#708088"/><polygon points="248.15 389.97 237.91 389.97 237.35 390.49 248.7 390.49 248.15 389.97" style="fill:#dae2e5;mix-blend-mode:multiply"/><polygon points="243.03 280.44 240.71 282.6 239.39 282.6 243.03 280.44" style="fill:#99a6ae"/><polygon points="243.03 280.44 246.66 282.6 245.44 282.6 243.03 280.44" style="fill:#e4e9ec"/><rect x="743.03" y="316.27" width="0.44" height="12.35" style="fill:#5b6d76"/><rect x="743.89" y="316.27" width="0.44" height="12.35" style="fill:#5b6d76"/><rect x="744.81" y="316.27" width="0.44" height="12.35" style="fill:#5b6d76"/><rect x="745.59" y="316.27" width="0.44" height="12.35" style="fill:#5b6d76"/><rect x="754.28" y="316.27" width="0.44" height="12.35" transform="translate(1509.01 644.9) rotate(180)" style="fill:#5b6d76"/><rect x="753.42" y="316.27" width="0.44" height="12.35" transform="translate(1507.29 644.9) rotate(180)" style="fill:#5b6d76"/><rect x="752.5" y="316.27" width="0.44" height="12.35" transform="translate(1505.44 644.9) rotate(180)" style="fill:#5b6d76"/><rect x="751.73" y="316.27" width="0.44" height="12.35" transform="translate(1503.89 644.9) rotate(180)" style="fill:#5b6d76"/><polygon points="751.22 316.52 746.72 320.78 746.53 320.61 751.04 316.35 751.22 316.52" style="fill:#99a6ae"/><polygon points="746.53 316.52 751.04 320.78 751.22 320.61 746.72 316.35 746.53 316.52" style="fill:#bbc6cd"/><polygon points="751.22 320.97 746.72 325.23 746.53 325.05 751.04 320.8 751.22 320.97" style="fill:#99a6ae"/><polygon points="746.53 320.97 751.04 325.23 751.22 325.05 746.72 320.8 746.53 320.97" style="fill:#bbc6cd"/><polygon points="751.22 325.42 746.72 329.67 746.53 329.5 751.04 325.24 751.22 325.42" style="fill:#99a6ae"/><polygon points="746.53 325.42 751.04 329.67 751.22 329.5 746.72 325.24 746.53 325.42" style="fill:#bbc6cd"/><polygon points="751.22 329.86 746.72 334.12 746.53 333.94 751.04 329.69 751.22 329.86" style="fill:#99a6ae"/><polygon points="746.53 329.86 751.04 334.12 751.22 333.94 746.72 329.69 746.53 329.86" style="fill:#bbc6cd"/><polygon points="751.22 334.31 746.72 338.57 746.53 338.39 751.04 334.13 751.22 334.31" style="fill:#99a6ae"/><polygon points="746.53 334.31 751.04 338.57 751.22 338.39 746.72 334.13 746.53 334.31" style="fill:#bbc6cd"/><polygon points="751.22 338.75 746.72 343.01 746.53 342.84 751.04 338.58 751.22 338.75" style="fill:#99a6ae"/><polygon points="746.53 338.75 751.04 343.01 751.22 342.84 746.72 338.58 746.53 338.75" style="fill:#bbc6cd"/><polygon points="751.22 343.2 746.72 347.46 746.53 347.28 751.04 343.02 751.22 343.2" style="fill:#99a6ae"/><polygon points="746.53 343.2 751.04 347.46 751.22 347.28 746.72 343.02 746.53 343.2" style="fill:#bbc6cd"/><polygon points="751.22 347.65 746.72 351.9 746.53 351.73 751.04 347.47 751.22 347.65" style="fill:#99a6ae"/><polygon points="746.53 347.65 751.04 351.9 751.22 351.73 746.72 347.47 746.53 347.65" style="fill:#bbc6cd"/><polygon points="751.22 352.09 746.72 356.35 746.53 356.18 751.04 351.92 751.22 352.09" style="fill:#99a6ae"/><polygon points="746.53 352.09 751.04 356.35 751.22 356.18 746.72 351.92 746.53 352.09" style="fill:#bbc6cd"/><polygon points="751.22 356.54 746.72 360.8 746.53 360.62 751.04 356.36 751.22 356.54" style="fill:#99a6ae"/><polygon points="746.53 356.54 751.04 360.8 751.22 360.62 746.72 356.36 746.53 356.54" style="fill:#bbc6cd"/><polygon points="751.22 360.98 746.72 365.24 746.53 365.07 751.04 360.81 751.22 360.98" style="fill:#99a6ae"/><polygon points="746.53 360.98 751.04 365.24 751.22 365.07 746.72 360.81 746.53 360.98" style="fill:#bbc6cd"/><polygon points="751.22 365.43 746.72 369.69 746.53 369.51 751.04 365.25 751.22 365.43" style="fill:#99a6ae"/><polygon points="746.53 365.43 751.04 369.69 751.22 369.51 746.72 365.25 746.53 365.43" style="fill:#bbc6cd"/><polygon points="751.22 369.88 746.72 374.13 746.53 373.96 751.04 369.7 751.22 369.88" style="fill:#99a6ae"/><polygon points="746.53 369.88 751.04 374.13 751.22 373.96 746.72 369.7 746.53 369.88" style="fill:#bbc6cd"/><polygon points="751.22 374.32 746.72 378.58 746.53 378.4 751.04 374.15 751.22 374.32" style="fill:#99a6ae"/><polygon points="746.53 374.32 751.04 378.58 751.22 378.4 746.72 374.15 746.53 374.32" style="fill:#bbc6cd"/><polygon points="751.22 378.77 746.72 383.03 746.53 382.85 751.04 378.59 751.22 378.77" style="fill:#99a6ae"/><polygon points="746.53 378.77 751.04 383.03 751.22 382.85 746.72 378.59 746.53 378.77" style="fill:#bbc6cd"/><polygon points="751.22 383.21 746.72 387.47 746.53 387.3 751.04 383.04 751.22 383.21" style="fill:#99a6ae"/><polygon points="746.53 383.21 751.04 387.47 751.22 387.3 746.72 383.04 746.53 383.21" style="fill:#bbc6cd"/><polygon points="748.88 303.99 749.31 314.97 748.44 314.97 748.88 303.99" style="fill:#bbc6cd"/><rect x="751.06" y="316.2" width="0.32" height="73.32" style="fill:#bbc6cd"/><rect x="746.37" y="316.2" width="0.32" height="73.32" style="fill:#99a6ae"/><rect x="746.69" y="316.2" width="4.37" height="0.29" style="fill:#99a6ae"/><rect x="746.69" y="320.64" width="4.37" height="0.29" style="fill:#99a6ae"/><rect x="746.69" y="325.09" width="4.37" height="0.29" style="fill:#99a6ae"/><rect x="746.69" y="329.54" width="4.37" height="0.29" style="fill:#99a6ae"/><rect x="746.69" y="333.98" width="4.37" height="0.29" style="fill:#99a6ae"/><rect x="746.69" y="338.43" width="4.37" height="0.29" style="fill:#99a6ae"/><rect x="746.69" y="342.87" width="4.37" height="0.29" style="fill:#99a6ae"/><rect x="746.69" y="347.32" width="4.37" height="0.29" style="fill:#99a6ae"/><rect x="746.69" y="351.76" width="4.37" height="0.29" style="fill:#99a6ae"/><rect x="746.69" y="356.21" width="4.37" height="0.29" style="fill:#99a6ae"/><rect x="746.69" y="360.66" width="4.37" height="0.29" style="fill:#99a6ae"/><rect x="746.69" y="365.1" width="4.37" height="0.29" style="fill:#99a6ae"/><rect x="746.69" y="369.55" width="4.37" height="0.29" style="fill:#99a6ae"/><rect x="746.69" y="373.99" width="4.37" height="0.29" style="fill:#99a6ae"/><rect x="746.69" y="378.44" width="4.37" height="0.29" style="fill:#99a6ae"/><rect x="746.69" y="382.88" width="4.37" height="0.29" style="fill:#99a6ae"/><rect x="746.69" y="387.33" width="4.37" height="0.29" style="fill:#99a6ae"/><polygon points="752.4 389.52 745.35 389.52 744.97 390.49 752.78 390.49 752.4 389.52" style="fill:#dae2e5"/><polygon points="748.88 314.72 751.38 316.2 746.37 316.2 748.88 314.72" style="fill:#bbc6cd"/><path d="M745.79,332c1,.06,1.59,2.37,1.4,5.15s-1.11,5-2.06,4.91h0L744,342c-.82-.05-1.4-1.74-1.43-4,0-.38,0-.77,0-1.18.18-2.78,1.1-5,2.06-4.92Z" style="fill:#708088"/><path d="M742.6,336.83c-.19,2.78.44,5.09,1.4,5.15s1.88-2.14,2.06-4.92-.44-5.09-1.4-5.15S742.78,334.05,742.6,336.83Z" style="fill:#b6c1c7"/><path d="M742.78,336.84c-.16,2.48.35,4.53,1.14,4.59s1.57-1.92,1.73-4.4-.34-4.53-1.13-4.58S743,334.37,742.78,336.84Z" style="fill:#e4e9ec"/><rect x="752.72" y="361.12" width="0.16" height="4.87" style="fill:#99a6ae"/><rect x="751.76" y="354.96" width="0.21" height="0.97" transform="translate(1107.31 -396.42) rotate(90)" style="fill:#4b5964"/><rect x="751.76" y="359.09" width="0.21" height="0.97" transform="translate(1111.45 -392.29) rotate(90)" style="fill:#4b5964"/><rect x="752.35" y="353.82" width="0.9" height="7.29" rx="0.37" style="fill:#99a6ae"/><rect x="744.87" y="361.12" width="0.16" height="4.87" transform="translate(1489.9 727.11) rotate(180)" style="fill:#99a6ae"/><rect x="745.79" y="354.96" width="0.21" height="0.97" transform="translate(1101.34 -390.44) rotate(90)" style="fill:#4b5964"/><rect x="745.79" y="359.09" width="0.21" height="0.97" transform="translate(1105.47 -386.31) rotate(90)" style="fill:#4b5964"/><rect x="744.5" y="353.82" width="0.9" height="7.29" rx="0.37" transform="matrix(-1, 0, 0, -1, 1489.9, 714.94)" style="fill:#99a6ae"/><rect x="751.38" y="316.2" width="3.34" height="0.14" style="fill:#b6c1c7"/><rect x="748.55" y="322.38" width="12.21" height="0.14" transform="translate(1077.1 -432.21) rotate(90)" style="fill:#b6c1c7"/><rect x="747.76" y="322.38" width="12.21" height="0.14" transform="translate(1076.31 -431.42) rotate(90)" style="fill:#b6c1c7"/><rect x="746.83" y="322.38" width="12.21" height="0.14" transform="translate(1075.39 -430.49) rotate(90)" style="fill:#b6c1c7"/><rect x="746.04" y="322.38" width="12.21" height="0.14" transform="translate(1074.6 -429.7) rotate(90)" style="fill:#b6c1c7"/><rect x="751.38" y="328.55" width="3.34" height="0.14" style="fill:#b6c1c7"/><path d="M751.38,328.7a1.84,1.84,0,0,0,1.67,1.1,1.82,1.82,0,0,0,1.67-1.1Z" style="fill:#708088"/><rect x="743.03" y="316.2" width="3.34" height="0.14" transform="translate(1489.4 632.54) rotate(180)" style="fill:#b6c1c7"/><rect x="737" y="322.38" width="12.21" height="0.14" transform="translate(1065.55 -420.65) rotate(90)" style="fill:#b6c1c7"/><rect x="737.79" y="322.38" width="12.21" height="0.14" transform="translate(1066.34 -421.44) rotate(90)" style="fill:#b6c1c7"/><rect x="738.71" y="322.38" width="12.21" height="0.14" transform="translate(1067.26 -422.37) rotate(90)" style="fill:#b6c1c7"/><rect x="739.5" y="322.38" width="12.21" height="0.14" transform="translate(1068.05 -423.16) rotate(90)" style="fill:#b6c1c7"/><rect x="743.03" y="328.55" width="3.34" height="0.14" transform="translate(1489.4 657.25) rotate(180)" style="fill:#b6c1c7"/><path d="M746.37,328.7a1.82,1.82,0,0,1-3.34,0Z" style="fill:#708088"/><polygon points="748.88 314.72 747.28 316.2 746.37 316.2 748.88 314.72" style="fill:#99a6ae"/><polygon points="748.88 314.72 751.38 316.2 750.54 316.2 748.88 314.72" style="fill:#e4e9ec"/><path d="M118.46,241.75h.26a.21.21,0,0,1,.21.21v3.42a.2.2,0,0,1-.2.2h-.26a.21.21,0,0,1-.21-.21V242A.2.2,0,0,1,118.46,241.75Z" style="fill:#99a6ae"/><rect x="117.16" y="242.47" width="1.1" height="0.16" style="fill:#4b5964"/><rect x="117.16" y="244.34" width="1.1" height="0.16" style="fill:#4b5964"/><path d="M114,241.75h.26a.21.21,0,0,1,.21.21v3.42a.2.2,0,0,1-.2.2H114a.21.21,0,0,1-.21-.21V242a.2.2,0,0,1,.2-.2Z" transform="translate(228.34 487.33) rotate(-180)" style="fill:#99a6ae"/><rect x="114.51" y="242.47" width="1.1" height="0.16" transform="translate(230.11 485.1) rotate(180)" style="fill:#4b5964"/><rect x="114.51" y="244.34" width="1.1" height="0.16" transform="translate(230.11 488.84) rotate(180)" style="fill:#4b5964"/><rect x="115.33" y="253.84" width="2.1" height="0.35" style="fill:#99a6ae"/><rect x="115.45" y="250.12" width="1.87" height="0.35" style="fill:#99a6ae"/><rect x="115.56" y="246.4" width="1.64" height="0.35" style="fill:#99a6ae"/><rect x="115.6" y="242.68" width="1.56" height="0.35" style="fill:#99a6ae"/><path d="M119,291.12l-5.75-5.06a.26.26,0,0,1-.07-.15.2.2,0,0,1,.06-.15l5.3-5.51-5-5.64a.21.21,0,0,1,0-.27l4.64-5.63-4.17-5.62a.21.21,0,0,1,0-.26l4-4.86.3.27L114.47,263l4.17,5.62a.21.21,0,0,1,0,.26L114,274.47l5,5.64a.23.23,0,0,1,0,.29l-5.29,5.49,5.58,4.91Z" style="fill:#99a6ae"/><path d="M113.75,291.12l-.26-.32,5.58-4.91-5.28-5.49a.23.23,0,0,1,0-.29l5-5.64-4.63-5.62a.23.23,0,0,1,0-.26L118.3,263l-3.87-4.73.3-.27,4,4.86a.2.2,0,0,1,0,.26l-4.16,5.62,4.65,5.63a.21.21,0,0,1,0,.27l-5,5.64,5.3,5.51a.2.2,0,0,1,.06.15.21.21,0,0,1-.07.15Z" style="fill:#bbc6cd"/><rect x="114.08" y="262.78" width="4.6" height="0.55" style="fill:#99a6ae"/><rect x="113.93" y="268.51" width="4.92" height="0.55" style="fill:#99a6ae"/><rect x="113.75" y="274.25" width="5.26" height="0.55" style="fill:#99a6ae"/><rect x="113.6" y="279.98" width="5.57" height="0.55" style="fill:#99a6ae"/><rect x="113.43" y="285.71" width="5.9" height="0.55" style="fill:#99a6ae"/><rect x="118.74" y="258" width="0.55" height="33.03" transform="translate(-7.94 3.58) rotate(-1.67)" style="fill:#bbc6cd"/><rect x="97.23" y="274.25" width="33.03" height="0.55" transform="translate(-163.98 380.18) rotate(-88.32)" style="fill:#99a6ae"/><rect x="112.79" y="257.54" width="7.18" height="0.76" style="fill:#bbc6cd"/><polygon points="117.3 240.71 117.72 257.54 117.3 257.54 116.92 240.71 117.3 240.71" style="fill:#bbc6cd"/><polygon points="115.47 240.71 115.04 257.54 115.47 257.54 115.85 240.71 115.47 240.71" style="fill:#99a6ae"/><polygon points="118 240.71 114.77 240.71 114.95 239.98 117.82 239.98 118 240.71" style="fill:#bbc6cd"/><path d="M118.67,240.47h0l-.42-.2h-.49a.07.07,0,1,1,0-.14h.53l.44.21a.06.06,0,0,1,0,.09A.08.08,0,0,1,118.67,240.47Z" style="fill:#6c7f86"/><path d="M114.1,240.47h0l.42-.2H115a.07.07,0,1,0,0-.14h-.53l-.43.21s0,0,0,.09A.07.07,0,0,0,114.1,240.47Z" style="fill:#6c7f86"/><path d="M118.44,240.61h0l-.3-.14h-.34a.07.07,0,0,1,0-.14h.39l.3.14a.07.07,0,0,1,0,.09A.06.06,0,0,1,118.44,240.61Z" style="fill:#6c7f86"/><path d="M114.33,240.61h0l.29-.14H115a.07.07,0,0,0,0-.14h-.38l-.31.14a.07.07,0,0,0,0,.09A.05.05,0,0,0,114.33,240.61Z" style="fill:#6c7f86"/><polygon points="116.82 239.98 116.38 219 115.95 239.98 116.82 239.98" style="fill:#bbc6cd"/><rect x="112.79" y="258.11" width="7.18" height="0.19" style="fill:#6c7f86"/><rect x="112.79" y="257.54" width="7.18" height="0.19" style="fill:#e4e9ec"/><path d="M122.34,293.49H110.43l.74-2.35c.08-.24.52-.45,1.18-.61a11.58,11.58,0,0,1,1.25-.21h0a26.46,26.46,0,0,1,2.77-.15c2.51,0,5,.34,5.22,1l0,.06.41,1.33Z" style="fill:#bbc6cd"/><path d="M122.34,293.49H110.43l.74-2.35c.08-.24.52-.45,1.18-.61-.88,1.82-1.08,2.22,2.51,1.88a48.33,48.33,0,0,1,7.17.12Z" style="fill:#dae2e5;mix-blend-mode:multiply"/><path d="M125.94,298.24H106.82l1.19-3.77c.11-.33.59-.6,1.34-.83a23.52,23.52,0,0,1,5.16-.7l1.87-.05c3.55,0,7.09.44,8.1,1.23a.73.73,0,0,1,.27.35l.13.42Z" style="fill:#99a6ae"/><path d="M125.94,298.24H106.82l1.19-3.77c.11-.33.59-.6,1.34-.83-.31.53.5.89,6.15.53a34.36,34.36,0,0,1,9.38.72Z" style="fill:#dae2e5;mix-blend-mode:multiply"/><path d="M130.94,297.91a.65.65,0,0,1,0,.2l-.49,1.59-.46,1.49c-.46,1.5-6.36,2.69-13.57,2.69a57.86,57.86,0,0,1-6.16-.32c-4.16-.45-7.08-1.34-7.41-2.37l-1-3.08a.64.64,0,0,1,0-.2c0-.84,1.56-1.59,4.09-2.14a51.59,51.59,0,0,1,10.46-.94C124.42,294.83,130.94,296.21,130.94,297.91Z" style="fill:#d71d1d"/><ellipse cx="116.38" cy="301" rx="13.6" ry="2.88" style="fill:#961817"/><path d="M116.55,295.26v2.34h-.33v-2.34Zm.72,0h-.34l0,2.33h.33Zm-1.73,2.33h.33l0-2.33h-.33Zm2.48-2.31-.33,0-.08,2.32.33,0Zm-3.2,2.32.33,0-.07-2.32-.33,0Zm4-2.3-.33,0-.11,2.32.32,0Zm-4.72,2.32.33,0-.11-2.32-.33,0Zm5.52-2.28-.32-.05-.15,2.32.32,0Zm-6.28,2.31.32,0-.15-2.32-.32.05Zm7.1-2.27-.32-.05-.19,2.3.32.06Zm-7.89,2.31.32-.06-.18-2.3-.32.05Zm8.73-2.25-.32-.07-.22,2.3.31.07Zm-9.53,2.3.32-.07-.22-2.3-.32.07Zm10.37-2.23-.31-.08-.26,2.3.31.08Zm-11.17,2.3.31-.08-.26-2.3-.31.08Zm12-2.22-.31-.09-.3,2.29.31.09Zm-12.83,2.29.31-.09-.3-2.29-.31.09Zm13.67-2.18-.3-.11-.34,2.29.31.1ZM109.31,298l.31-.1-.34-2.29-.31.11Zm15.32-2.17-.3-.11L124,298l.3.11ZM108.5,298.1l.31-.11-.37-2.28-.31.11Zm17-2.14-.3-.12-.41,2.27.3.13Zm-17.75,2.28.31-.13-.41-2.27-.31.12Zm18.56-2.12L126,296l-.44,2.26.3.14Zm-19.33,2.27.3-.14-.45-2.26-.3.13Zm20.12-2.09-.29-.14-.49,2.26.3.15Zm-20.87,2.27.29-.15-.48-2.26-.3.14Zm21.64-2.06-.3-.16-.52,2.26.3.16Zm-22.37,2.26.29-.16-.51-2.26-.3.16Zm23.1-2-.29-.17-.56,2.25.29.17ZM104.77,299l.29-.17-.56-2.25-.29.17Zm24.48-2-.29-.18-.59,2.24.29.19Zm-25.14,2.25.29-.19-.59-2.24-.29.18Zm25.79-2-.28-.2-.64,2.24.29.2Zm-26.4,2.24.28-.2-.63-2.24-.28.2Zm27-1.93-.29-.2-.67,2.23.29.21Zm-27.58,2.24.28-.21-.67-2.23-.28.2Z" style="fill:#b3191b"/><path d="M130.41,299.7l-.46,1.49c-.46,1.5-6.36,2.69-13.57,2.69a57.86,57.86,0,0,1-6.16-.32c-4.16-.45-7.08-1.34-7.41-2.37l-1-3.08a.64.64,0,0,1,0-.2c0-.84,1.56-1.59,4.09-2.14-.53,2.74,1.06,1.64,8.46,1.27C121.55,296.67,126.8,297.32,130.41,299.7Z" style="fill:#dae2e5;mix-blend-mode:multiply"/><path d="M127.1,304.81a1,1,0,0,1,0,.16c-.61.5-5.15.88-10.67.88s-10-.38-10.66-.87l-.06-.18c.32-.51,5-.92,10.72-.92S126.82,304.29,127.1,304.81Z" style="fill:#6c7f86"/><path d="M127.71,301.46a11.36,11.36,0,0,1-.47,2.93c0,.15-.09.28-.14.42-.28-.52-5-.93-10.72-.93s-10.4.41-10.72.93a11.23,11.23,0,0,1-.61-3.39c.16-.94,2.51-1.74,5.93-2.16a46.56,46.56,0,0,1,5.4-.3C122.56,299,127.57,300.07,127.71,301.46Z" style="fill:#bbc6cd"/><path d="M125.47,305.12l-.13.23c-.12.2-.25.39-.38.58a10.49,10.49,0,0,1-17.53-.58,1,1,0,0,1-.13-.23c.23-.25,1.71-.48,3.88-.62,1.47-.09,3.27-.14,5.2-.14C121.18,304.36,125.1,304.7,125.47,305.12Z" style="fill:#961817"/><path d="M125,305.93a10.49,10.49,0,0,1-17.53-.58,1,1,0,0,1-.13-.23c.23-.25,1.71-.48,3.88-.62.55,1.94,1.24.49,5.8.89C120.85,305.73,122.05,305.56,125,305.93Z" style="fill:#dae2e5;mix-blend-mode:multiply"/><path d="M126,307.05c-.09.14-.17.29-.27.42a10.38,10.38,0,0,1-1.22,1.5,11.32,11.32,0,0,1-17.83-1.92.3.3,0,0,1,.15-.43,10.86,10.86,0,0,1,2.14-.36c1-.11,2.28-.19,3.72-.25,1.13,0,2.36-.06,3.65-.06,4.56,0,8.39.29,9.52.67A.29.29,0,0,1,126,307.05Z" style="fill:#bbc6cd"/><path d="M124.55,309a11.32,11.32,0,0,1-17.83-1.92.3.3,0,0,1,.15-.43,10.86,10.86,0,0,1,2.14-.36c.88,2.82,2.24,2.76,6.68,2.76C119.61,309,122.75,309.1,124.55,309Z" style="fill:#dae2e5;mix-blend-mode:multiply"/><rect x="116.38" y="383.37" width="3.69" height="1.46" style="fill:#b3191b"/><rect x="114.54" y="381.91" width="3.69" height="1.46" style="fill:#961817"/><rect x="112.69" y="383.37" width="3.7" height="1.46" style="fill:#d71d1d"/><rect x="118.23" y="381.91" width="1.85" height="1.46" transform="translate(238.3 765.28) rotate(180)" style="fill:#d71d1d"/><rect x="112.69" y="381.91" width="1.85" height="1.46" style="fill:#b3191b"/><rect x="116.38" y="380.45" width="3.69" height="1.46" style="fill:#b3191b"/><rect x="114.54" y="378.99" width="3.69" height="1.46" style="fill:#961817"/><rect x="112.69" y="380.45" width="3.7" height="1.46" style="fill:#d71d1d"/><rect x="118.23" y="378.99" width="1.85" height="1.46" transform="translate(238.3 759.44) rotate(180)" style="fill:#d71d1d"/><rect x="112.69" y="378.99" width="1.85" height="1.46" style="fill:#b3191b"/><rect x="116.38" y="377.53" width="3.69" height="1.46" style="fill:#b3191b"/><rect x="114.54" y="376.07" width="3.69" height="1.46" style="fill:#961817"/><rect x="112.69" y="377.53" width="3.7" height="1.46" style="fill:#d71d1d"/><rect x="118.23" y="376.07" width="1.85" height="1.46" transform="translate(238.3 753.6) rotate(180)" style="fill:#d71d1d"/><rect x="112.69" y="376.07" width="1.85" height="1.46" style="fill:#b3191b"/><rect x="116.38" y="374.61" width="3.69" height="1.46" style="fill:#b3191b"/><rect x="114.54" y="373.15" width="3.69" height="1.46" style="fill:#961817"/><rect x="112.69" y="374.61" width="3.7" height="1.46" style="fill:#d71d1d"/><rect x="118.23" y="373.15" width="1.85" height="1.46" transform="translate(238.3 747.76) rotate(180)" style="fill:#d71d1d"/><rect x="112.69" y="373.15" width="1.85" height="1.46" style="fill:#b3191b"/><rect x="116.38" y="371.69" width="3.69" height="1.46" style="fill:#b3191b"/><rect x="114.54" y="370.23" width="3.69" height="1.46" style="fill:#961817"/><rect x="112.69" y="371.69" width="3.7" height="1.46" style="fill:#d71d1d"/><rect x="118.23" y="370.23" width="1.85" height="1.46" transform="translate(238.3 741.92) rotate(180)" style="fill:#d71d1d"/><rect x="112.69" y="370.23" width="1.85" height="1.46" style="fill:#b3191b"/><rect x="116.38" y="368.77" width="3.69" height="1.46" style="fill:#b3191b"/><rect x="114.54" y="367.31" width="3.69" height="1.46" style="fill:#961817"/><rect x="112.69" y="368.77" width="3.7" height="1.46" style="fill:#d71d1d"/><rect x="118.23" y="367.31" width="1.85" height="1.46" transform="translate(238.3 736.08) rotate(180)" style="fill:#d71d1d"/><rect x="112.69" y="367.31" width="1.85" height="1.46" style="fill:#b3191b"/><rect x="116.38" y="365.85" width="3.69" height="1.46" style="fill:#b3191b"/><rect x="114.54" y="364.39" width="3.69" height="1.46" style="fill:#961817"/><rect x="112.69" y="365.85" width="3.7" height="1.46" style="fill:#d71d1d"/><rect x="118.23" y="364.39" width="1.85" height="1.46" transform="translate(238.3 730.23) rotate(180)" style="fill:#d71d1d"/><rect x="112.69" y="364.39" width="1.85" height="1.46" style="fill:#b3191b"/><rect x="116.38" y="362.93" width="3.69" height="1.46" style="fill:#b3191b"/><rect x="114.54" y="361.47" width="3.69" height="1.46" style="fill:#961817"/><rect x="112.69" y="362.93" width="3.7" height="1.46" style="fill:#d71d1d"/><rect x="118.23" y="361.47" width="1.85" height="1.46" transform="translate(238.3 724.39) rotate(180)" style="fill:#d71d1d"/><rect x="112.69" y="361.47" width="1.85" height="1.46" style="fill:#b3191b"/><rect x="116.38" y="360.01" width="3.69" height="1.46" style="fill:#b3191b"/><rect x="114.54" y="358.55" width="3.69" height="1.46" style="fill:#961817"/><rect x="112.69" y="360.01" width="3.7" height="1.46" style="fill:#d71d1d"/><rect x="118.23" y="358.55" width="1.85" height="1.46" transform="translate(238.3 718.55) rotate(180)" style="fill:#d71d1d"/><rect x="112.69" y="358.54" width="1.85" height="1.46" style="fill:#b3191b"/><rect x="116.38" y="357.08" width="3.69" height="1.46" style="fill:#b3191b"/><rect x="114.54" y="355.62" width="3.69" height="1.46" style="fill:#961817"/><rect x="112.69" y="357.08" width="3.7" height="1.46" style="fill:#d71d1d"/><rect x="118.23" y="355.62" width="1.85" height="1.46" transform="translate(238.3 712.71) rotate(180)" style="fill:#d71d1d"/><rect x="112.69" y="355.62" width="1.85" height="1.46" style="fill:#b3191b"/><rect x="116.38" y="354.16" width="3.69" height="1.46" style="fill:#b3191b"/><rect x="114.54" y="352.7" width="3.69" height="1.46" style="fill:#961817"/><rect x="112.69" y="354.16" width="3.7" height="1.46" style="fill:#d71d1d"/><rect x="118.23" y="352.7" width="1.85" height="1.46" transform="translate(238.3 706.87) rotate(180)" style="fill:#d71d1d"/><rect x="112.69" y="352.7" width="1.85" height="1.46" style="fill:#b3191b"/><rect x="116.38" y="351.24" width="3.69" height="1.46" style="fill:#b3191b"/><rect x="114.54" y="349.78" width="3.69" height="1.46" style="fill:#961817"/><rect x="112.69" y="351.24" width="3.7" height="1.46" style="fill:#d71d1d"/><rect x="118.23" y="349.78" width="1.85" height="1.46" transform="translate(238.3 701.03) rotate(180)" style="fill:#d71d1d"/><rect x="112.69" y="349.79" width="1.85" height="1.46" style="fill:#b3191b"/><rect x="116.38" y="348.32" width="3.69" height="1.46" style="fill:#b3191b"/><rect x="114.54" y="346.86" width="3.69" height="1.46" style="fill:#961817"/><rect x="112.69" y="348.32" width="3.7" height="1.46" style="fill:#d71d1d"/><rect x="118.23" y="346.86" width="1.85" height="1.46" transform="translate(238.3 695.18) rotate(180)" style="fill:#d71d1d"/><rect x="112.69" y="346.86" width="1.85" height="1.46" style="fill:#b3191b"/><rect x="116.38" y="345.4" width="3.69" height="1.46" style="fill:#b3191b"/><rect x="114.54" y="343.94" width="3.69" height="1.46" style="fill:#961817"/><rect x="112.69" y="345.4" width="3.7" height="1.46" style="fill:#d71d1d"/><rect x="118.23" y="343.94" width="1.85" height="1.46" transform="translate(238.3 689.34) rotate(180)" style="fill:#d71d1d"/><rect x="112.69" y="343.94" width="1.85" height="1.46" style="fill:#b3191b"/><rect x="116.38" y="342.48" width="3.69" height="1.46" style="fill:#b3191b"/><rect x="114.54" y="341.02" width="3.69" height="1.46" style="fill:#961817"/><rect x="112.69" y="342.48" width="3.7" height="1.46" style="fill:#d71d1d"/><rect x="118.23" y="341.02" width="1.85" height="1.46" transform="translate(238.3 683.5) rotate(180)" style="fill:#d71d1d"/><rect x="112.69" y="341.02" width="1.85" height="1.46" transform="translate(227.23 683.5) rotate(180)" style="fill:#b3191b"/><rect x="116.38" y="339.56" width="3.69" height="1.46" style="fill:#b3191b"/><rect x="114.54" y="338.1" width="3.69" height="1.46" style="fill:#961817"/><rect x="112.69" y="339.56" width="3.69" height="1.46" style="fill:#d71d1d"/><rect x="118.23" y="338.1" width="1.85" height="1.46" transform="translate(238.3 677.66) rotate(180)" style="fill:#d71d1d"/><rect x="112.69" y="338.1" width="1.85" height="1.46" transform="translate(227.23 677.66) rotate(180)" style="fill:#b3191b"/><rect x="116.38" y="336.64" width="3.69" height="1.46" style="fill:#b3191b"/><rect x="114.54" y="335.18" width="3.69" height="1.46" style="fill:#961817"/><rect x="112.69" y="336.64" width="3.69" height="1.46" style="fill:#d71d1d"/><rect x="118.23" y="335.18" width="1.85" height="1.46" transform="translate(238.3 671.82) rotate(180)" style="fill:#d71d1d"/><rect x="112.69" y="335.18" width="1.85" height="1.46" transform="translate(227.23 671.82) rotate(180)" style="fill:#b3191b"/><rect x="116.38" y="333.72" width="3.69" height="1.46" style="fill:#b3191b"/><rect x="114.54" y="332.26" width="3.69" height="1.46" style="fill:#961817"/><rect x="112.69" y="333.72" width="3.69" height="1.46" style="fill:#d71d1d"/><rect x="118.23" y="332.26" width="1.85" height="1.46" transform="translate(238.3 665.98) rotate(180)" style="fill:#d71d1d"/><rect x="112.69" y="332.26" width="1.85" height="1.46" transform="translate(227.23 665.98) rotate(180)" style="fill:#b3191b"/><rect x="116.38" y="330.8" width="3.69" height="1.46" style="fill:#b3191b"/><rect x="114.54" y="329.34" width="3.69" height="1.46" style="fill:#961817"/><rect x="112.69" y="330.8" width="3.69" height="1.46" style="fill:#d71d1d"/><rect x="118.23" y="329.34" width="1.85" height="1.46" transform="translate(238.3 660.13) rotate(180)" style="fill:#d71d1d"/><rect x="112.69" y="329.34" width="1.85" height="1.46" transform="translate(227.23 660.13) rotate(180)" style="fill:#b3191b"/><rect x="116.38" y="327.88" width="3.69" height="1.46" style="fill:#b3191b"/><rect x="114.54" y="326.42" width="3.69" height="1.46" style="fill:#961817"/><rect x="112.69" y="327.87" width="3.7" height="1.46" style="fill:#d71d1d"/><rect x="118.23" y="326.42" width="1.85" height="1.46" transform="translate(238.3 654.29) rotate(180)" style="fill:#d71d1d"/><rect x="112.69" y="326.41" width="1.85" height="1.46" style="fill:#b3191b"/><rect x="116.38" y="324.96" width="3.69" height="1.46" style="fill:#b3191b"/><rect x="114.54" y="323.5" width="3.69" height="1.46" style="fill:#961817"/><rect x="112.69" y="324.95" width="3.7" height="1.46" style="fill:#d71d1d"/><rect x="118.23" y="323.5" width="1.85" height="1.46" transform="translate(238.3 648.45) rotate(180)" style="fill:#d71d1d"/><rect x="112.69" y="323.5" width="1.85" height="1.46" style="fill:#b3191b"/><rect x="116.38" y="322.04" width="3.69" height="1.46" style="fill:#b3191b"/><rect x="114.54" y="320.57" width="3.69" height="1.46" style="fill:#961817"/><rect x="112.69" y="322.04" width="3.7" height="1.46" style="fill:#d71d1d"/><rect x="118.23" y="320.57" width="1.85" height="1.46" transform="translate(238.3 642.61) rotate(180)" style="fill:#d71d1d"/><rect x="112.69" y="320.58" width="1.85" height="1.46" style="fill:#b3191b"/><rect x="116.38" y="319.11" width="3.69" height="1.46" style="fill:#b3191b"/><rect x="114.54" y="317.65" width="3.69" height="1.46" style="fill:#961817"/><rect x="112.69" y="319.12" width="3.7" height="1.46" style="fill:#d71d1d"/><rect x="118.23" y="317.65" width="1.85" height="1.46" transform="translate(238.3 636.77) rotate(180)" style="fill:#d71d1d"/><rect x="112.69" y="317.66" width="1.85" height="1.46" style="fill:#b3191b"/><rect x="116.38" y="316.19" width="3.69" height="1.46" style="fill:#b3191b"/><rect x="114.54" y="314.73" width="3.69" height="1.46" style="fill:#961817"/><rect x="112.69" y="316.19" width="3.7" height="1.46" style="fill:#d71d1d"/><rect x="118.23" y="314.73" width="1.85" height="1.46" transform="translate(238.3 630.93) rotate(180)" style="fill:#d71d1d"/><rect x="112.69" y="314.73" width="1.85" height="1.46" style="fill:#b3191b"/><rect x="116.38" y="313.27" width="3.69" height="1.46" style="fill:#b3191b"/><rect x="114.54" y="311.81" width="3.69" height="1.46" style="fill:#961817"/><rect x="112.69" y="313.27" width="3.7" height="1.46" style="fill:#d71d1d"/><rect x="118.23" y="311.81" width="1.85" height="1.46" style="fill:#d71d1d"/><rect x="112.69" y="311.81" width="1.85" height="1.46" style="fill:#b3191b"/><path d="M120.07,311.81v2.58a3.59,3.59,0,0,0-1.23.34,4.24,4.24,0,0,0-.61.36,6.68,6.68,0,0,0-1.18,1.1c-.23.28-.45.59-.67.92-.11.17-.23.35-.34.55-.26.45-.51.93-.75,1.46s-.42.95-.61,1.46c-.05.12-.09.24-.14.38-.13.35-.25.71-.37,1.08s-.3,1-.44,1.46-.26,1-.39,1.45l-.33,1.46c-.11.49-.21,1-.3,1.46a.44.44,0,0,0,0,.1V311.81Z" style="fill:#afc0c7;mix-blend-mode:multiply"/><path d="M120.07,383.41v1.42h-7.38V343.76l0,.18c.09.46.17.95.25,1.46s.12,1,.18,1.46.11,1,.15,1.46.09,1,.13,1.47.07,1,.1,1.45l.09,1.46c0,.48,0,1,.07,1.46l.06,1.46c0,.49,0,1,0,1.46s0,1,0,1.46,0,1,0,1.47,0,1,0,1.46,0,1,0,1.46,0,1,0,1.46,0,1,0,1.46,0,1,0,1.46,0,1,0,1.46,0,1,0,1.46v1.46c0,.51,0,1,0,1.46s0,1,0,1.46,0,1,0,1.46,0,1.05,0,1.46v.11A8,8,0,0,0,114,379a6.26,6.26,0,0,0,.47,1.46,4.48,4.48,0,0,0,1.11,1.46,6,6,0,0,0,2.63,1.27,7.18,7.18,0,0,0,1.16.19A5.49,5.49,0,0,0,120.07,383.41Z" style="fill:#afc0c7;mix-blend-mode:multiply"/><path d="M108.23,385.23l-.22-.5,15.4-6.79-14.52-5.25a.27.27,0,0,1-.18-.26.28.28,0,0,1,.18-.26l13.73-5.23-12.88-5.22a.27.27,0,0,1-.17-.25.25.25,0,0,1,.16-.25l12-5.39-11.46-4.21a.25.25,0,0,1-.17-.24.27.27,0,0,1,.14-.26l11.35-5.83-11.18-5.83a.28.28,0,0,1-.15-.24.29.29,0,0,1,.14-.25l11-5.83-10.83-5.83a.28.28,0,0,1-.15-.24.29.29,0,0,1,.15-.25L121.36,321l-10.56-5.83a.28.28,0,0,1-.14-.27.3.3,0,0,1,.19-.24l10.77-3.27.16.53L111.64,315l10.42,5.76a.28.28,0,0,1,0,.48l-10.75,5.84,10.85,5.83a.27.27,0,0,1,.14.24.26.26,0,0,1-.14.24l-11,5.83,11.2,5.84a.26.26,0,0,1,.14.24.25.25,0,0,1-.15.24l-11.26,5.79,11.51,4.22a.3.3,0,0,1,.18.25.28.28,0,0,1-.16.26l-12.09,5.4,12.93,5.24a.27.27,0,0,1,.17.26.27.27,0,0,1-.17.25l-13.7,5.22,14.47,5.23a.27.27,0,0,1,.18.25.28.28,0,0,1-.16.26Z" style="fill:#99a6ae"/><path d="M124.53,385.23l-16-7.07a.27.27,0,0,1-.17-.26.3.3,0,0,1,.18-.25L123,372.42,109.3,367.2a.27.27,0,0,1-.18-.25.3.3,0,0,1,.17-.26l12.93-5.24-12.08-5.4a.26.26,0,0,1-.16-.26.27.27,0,0,1,.18-.25l11.5-4.22-11.26-5.79a.27.27,0,0,1,0-.48l11.19-5.84-11-5.83a.27.27,0,0,1-.15-.24.28.28,0,0,1,.15-.24l10.84-5.83-10.75-5.84a.28.28,0,0,1,0-.48L121.13,315,111,311.91l.16-.53,10.77,3.27a.28.28,0,0,1,.19.24.26.26,0,0,1-.14.27L111.41,321l10.75,5.83a.29.29,0,0,1,.14.25.27.27,0,0,1-.14.24l-10.84,5.83,11,5.83a.29.29,0,0,1,.15.25.28.28,0,0,1-.15.24l-11.19,5.83,11.35,5.83a.26.26,0,0,1,.15.26.27.27,0,0,1-.18.24L111,355.83,123,361.22a.26.26,0,0,1,.16.25.27.27,0,0,1-.17.25l-12.89,5.22,13.74,5.23a.28.28,0,0,1,.18.26.29.29,0,0,1-.19.26l-14.51,5.25,15.39,6.79Z" style="fill:#bbc6cd"/><rect x="123.35" y="366.67" width="2.25" height="0.55" style="fill:#99a6ae"/><rect x="107.16" y="366.67" width="2.25" height="0.55" style="fill:#99a6ae"/><rect x="123.78" y="372.15" width="2.39" height="0.55" style="fill:#99a6ae"/><rect x="106.59" y="372.15" width="2.39" height="0.55" style="fill:#99a6ae"/><rect x="124.15" y="377.64" width="2.64" height="0.55" style="fill:#99a6ae"/><rect x="105.98" y="377.64" width="2.64" height="0.55" style="fill:#99a6ae"/><rect x="122.92" y="361.19" width="2.14" height="0.55" style="fill:#99a6ae"/><rect x="107.7" y="361.19" width="2.14" height="0.55" style="fill:#99a6ae"/><rect x="125.74" y="355.71" width="0.55" height="29.78" transform="translate(-38.12 15.24) rotate(-6.01)" style="fill:#bbc6cd"/><rect x="91.85" y="370.33" width="29.78" height="0.55" transform="translate(-273 437.94) rotate(-83.99)" style="fill:#99a6ae"/><rect x="123.31" y="355.76" width="0.55" height="29.69" transform="translate(-26.34 9.85) rotate(-4.13)" style="fill:#99a6ae"/><rect x="94.34" y="370.33" width="29.69" height="0.55" transform="translate(-268.32 452.84) rotate(-85.87)" style="fill:#bbc6cd"/><rect x="121.7" y="314.64" width="1.5" height="0.55" style="fill:#99a6ae"/><rect x="109.57" y="314.64" width="1.5" height="0.55" style="fill:#99a6ae"/><rect x="121.83" y="320.72" width="1.59" height="0.55" style="fill:#99a6ae"/><rect x="109.34" y="320.72" width="1.59" height="0.55" style="fill:#99a6ae"/><rect x="121.93" y="326.79" width="1.64" height="0.55" style="fill:#99a6ae"/><rect x="109.19" y="326.79" width="1.64" height="0.55" style="fill:#99a6ae"/><rect x="122.03" y="332.87" width="1.73" height="0.55" style="fill:#99a6ae"/><rect x="109" y="332.87" width="1.73" height="0.55" style="fill:#99a6ae"/><rect x="122.18" y="338.94" width="1.74" height="0.55" style="fill:#99a6ae"/><rect x="108.84" y="338.94" width="1.74" height="0.55" style="fill:#99a6ae"/><rect x="122.32" y="345.02" width="1.78" height="0.55" style="fill:#99a6ae"/><rect x="108.66" y="345.02" width="1.78" height="0.55" style="fill:#99a6ae"/><rect x="122.34" y="351.09" width="2.05" height="0.55" style="fill:#99a6ae"/><rect x="108.37" y="351.09" width="2.05" height="0.55" style="fill:#99a6ae"/><rect x="123.5" y="311.51" width="0.55" height="44.29" transform="translate(-10.23 3.97) rotate(-1.77)" style="fill:#bbc6cd"/><rect x="86.84" y="333.38" width="44.29" height="0.55" transform="translate(-227.87 432.31) rotate(-88.23)" style="fill:#99a6ae"/><rect x="121.8" y="311.37" width="0.55" height="44.55" transform="translate(-6.6 2.49) rotate(-1.14)" style="fill:#99a6ae"/><rect x="88.42" y="333.37" width="44.55" height="0.55" transform="translate(-225.08 437.69) rotate(-88.86)" style="fill:#bbc6cd"/><rect x="116.03" y="347.19" width="0.71" height="17.21" transform="translate(472.17 239.41) rotate(90)" style="fill:#bbc6cd"/><polygon points="134.55 390.49 98.21 390.49 99.57 387.38 133.19 387.38 134.3 389.92 134.55 390.49" style="fill:#bbc6cd"/><polygon points="131.25 387.38 101.51 387.38 102.62 384.83 130.15 384.83 130.94 386.65 131.25 387.38" style="fill:#dae2e5"/><polygon points="124.18 311.95 108.59 311.95 108.99 309.54 123.78 309.54 124.18 311.95" style="fill:#b3191b"/><path d="M117.91,301.54a1.53,1.53,0,1,1-3,0,1.53,1.53,0,0,1,3,0Z" style="fill:#961817"/><path d="M121.74,301.72a1.38,1.38,0,1,1-1.28-1.6A1.45,1.45,0,0,1,121.74,301.72Z" style="fill:#961817"/><path d="M111,301.72a1.38,1.38,0,1,0,1.28-1.6A1.46,1.46,0,0,0,111,301.72Z" style="fill:#961817"/><path d="M125.23,302.12a1.33,1.33,0,1,1-2.61-.24,1.32,1.32,0,1,1,2.61.24Z" style="fill:#961817"/><path d="M107.53,302.12a1.33,1.33,0,1,0,2.62-.24,1.33,1.33,0,1,0-2.62.24Z" style="fill:#961817"/><path d="M127.29,302.71c-.16.75-.63,1.3-1.06,1.21s-.65-.77-.5-1.53.63-1.29,1-1.21S127.44,302,127.29,302.71Z" style="fill:#961817"/><path d="M105.48,302.71c.15.75.63,1.3,1.06,1.21s.65-.77.5-1.53-.63-1.29-1.06-1.21S105.33,302,105.48,302.71Z" style="fill:#961817"/><path d="M117.51,301a1.05,1.05,0,0,0-.25-.37,1.18,1.18,0,0,0-.22-.17,1.22,1.22,0,0,0-.66-.19,1.48,1.48,0,0,0-.42.07,1.25,1.25,0,0,0-.81,1.16,1.19,1.19,0,0,0,.12.54,1.25,1.25,0,0,0,.86.67,1.07,1.07,0,0,0,.25,0h0a1.33,1.33,0,0,0,.44-.09,1.25,1.25,0,0,0,.77-1.15A1.22,1.22,0,0,0,117.51,301Zm3.89.11a1.18,1.18,0,0,0-.47-.58,1,1,0,0,0-.35-.15h-.14a.65.65,0,0,0-.14,0,1.19,1.19,0,0,0-1,1.16,1.28,1.28,0,0,0,.24.85,1.34,1.34,0,0,0,.2.21,1.35,1.35,0,0,0,.33.19.86.86,0,0,0,.27.05.93.93,0,0,0,.44-.07,1.24,1.24,0,0,0,.75-1.09A1.46,1.46,0,0,0,121.4,301.15Zm-7.92.18h0a1.19,1.19,0,0,0-.78-.86.92.92,0,0,0-.37,0,1.16,1.16,0,0,0-1,1.3,1.27,1.27,0,0,0,.51,1,1,1,0,0,0,.67.19,1.07,1.07,0,0,0,.44-.12,1.26,1.26,0,0,0,.61-1.18A2,2,0,0,0,113.48,301.33Zm11.5.47a1.06,1.06,0,0,0-.09-.36,1.08,1.08,0,0,0-.68-.64.86.86,0,0,0-.17,0,1.17,1.17,0,0,0-1.18,1.13,1.3,1.3,0,0,0,.45,1.13,1,1,0,0,0,.5.2.9.9,0,0,0,.37,0,1.05,1.05,0,0,0,.3-.15,1.32,1.32,0,0,0,.51-.94A1,1,0,0,0,125,301.8Zm-15.68-.9a1,1,0,0,0-.58-.13,1.15,1.15,0,0,0-.94,1.33,1.28,1.28,0,0,0,.62,1,.91.91,0,0,0,.56.12,1,1,0,0,0,.69-.4,1.24,1.24,0,0,0,.25-.6,1.82,1.82,0,0,0,0-.33A1.3,1.3,0,0,0,109.3,300.9Zm17.43.54h-.1c-.32,0-.65.43-.75,1a1.71,1.71,0,0,0,0,.82c.08.23.21.39.38.42a.47.47,0,0,0,.45-.18,1.49,1.49,0,0,0,.41-.8,1.31,1.31,0,0,0,0-.27C127.2,301.91,127,301.5,126.73,301.44Zm-19.84,1a0,0,0,0,1,0,0,1.85,1.85,0,0,0-.12-.4c-.18-.38-.46-.62-.73-.56a.39.39,0,0,0-.23.15.88.88,0,0,0-.19.47,1.64,1.64,0,0,0,0,.62,1.38,1.38,0,0,0,.5.88.42.42,0,0,0,.24.1h.11C106.83,303.59,107,303,106.89,302.42Z" style="fill:#7ac3ed"/><path d="M106.76,302l-.63,1.56a1.38,1.38,0,0,1-.5-.88,1.64,1.64,0,0,1,0-.62l.19-.47a.39.39,0,0,1,.23-.15C106.3,301.38,106.58,301.62,106.76,302Z" style="fill:#fff;mix-blend-mode:screen;opacity:0.30000000000000004"/><path d="M106.48,303.66h-.11l.51-1.26a0,0,0,0,0,0,0C107,303,106.83,303.59,106.48,303.66Z" style="fill:#fff;mix-blend-mode:screen;opacity:0.30000000000000004"/><path d="M109.9,301.9a1.82,1.82,0,0,1,0,.33l-.25.6a1,1,0,0,1-.69.4.91.91,0,0,1-.56-.12l.9-2.21A1.3,1.3,0,0,1,109.9,301.9Z" style="fill:#fff;mix-blend-mode:screen;opacity:0.30000000000000004"/><path d="M113.48,301.32h0l-.57,1.42a1.07,1.07,0,0,1-.44.12,1,1,0,0,1-.67-.19l.9-2.22A1.19,1.19,0,0,1,113.48,301.32Z" style="fill:#fff;mix-blend-mode:screen;opacity:0.30000000000000004"/><path d="M117,300.5l-.91,2.25a1.25,1.25,0,0,1-.86-.67l.69-1.7a1.48,1.48,0,0,1,.42-.07A1.22,1.22,0,0,1,117,300.5Z" style="fill:#fff;mix-blend-mode:screen;opacity:0.30000000000000004"/><path d="M117.51,301l-.66,1.65a1.33,1.33,0,0,1-.44.09l.85-2.11A1.05,1.05,0,0,1,117.51,301Z" style="fill:#fff;mix-blend-mode:screen;opacity:0.30000000000000004"/><path d="M120.3,300.41l-.81,2a1.28,1.28,0,0,1-.24-.85A1.19,1.19,0,0,1,120.3,300.41Z" style="fill:#fff;mix-blend-mode:screen;opacity:0.30000000000000004"/><path d="M120.93,300.57l-.91,2.25a1.35,1.35,0,0,1-.33-.19l.89-2.21A1,1,0,0,1,120.93,300.57Z" style="fill:#fff;mix-blend-mode:screen;opacity:0.30000000000000004"/><path d="M121.48,301.71a1.24,1.24,0,0,1-.75,1.09l.67-1.65A1.46,1.46,0,0,1,121.48,301.71Z" style="fill:#fff;mix-blend-mode:screen;opacity:0.30000000000000004"/><path d="M124.89,301.44l-.71,1.75a.9.9,0,0,1-.37,0,1,1,0,0,1-.5-.2l.9-2.23A1.08,1.08,0,0,1,124.89,301.44Z" style="fill:#fff;mix-blend-mode:screen;opacity:0.30000000000000004"/><path d="M125,302.1a1.32,1.32,0,0,1-.51.94l.5-1.24A1,1,0,0,1,125,302.1Z" style="fill:#fff;mix-blend-mode:screen;opacity:0.30000000000000004"/><path d="M127.17,302.41l-.44,1.07a.47.47,0,0,1-.45.18c-.17,0-.3-.19-.38-.42l.73-1.8h.1C127,301.5,127.2,301.91,127.17,302.41Z" style="fill:#fff;mix-blend-mode:screen;opacity:0.30000000000000004"/><path d="M127.24,304.39c0,.15-.09.28-.14.42-.28-.52-5-.93-10.72-.93s-10.4.41-10.72.93a11.23,11.23,0,0,1-.61-3.39c.16-.94,2.51-1.74,5.93-2.16-1.48,3.9.09,4.37,2.19,4.11C115.09,303.13,123.81,303.15,127.24,304.39Z" style="fill:#dae2e5;mix-blend-mode:multiply"/><path d="M126,307.05c-.09.14-.17.29-.27.42a27.34,27.34,0,0,0-5.47-.69c-4.67-.11-7.15-.46-7.57-.77,1.13,0,2.36-.06,3.65-.06,4.56,0,8.39.29,9.52.67A.29.29,0,0,1,126,307.05Z" style="fill:#dae2e5;mix-blend-mode:screen;opacity:0.30000000000000004"/><path d="M124.48,294.12c-.94-.15-2-.32-3-.41-1.82-.18-5-.54-7-.77l1.87-.05C119.93,292.92,123.47,293.33,124.48,294.12Z" style="fill:#dae2e5;mix-blend-mode:screen;opacity:0.30000000000000004"/><path d="M121.62,291.2a13.62,13.62,0,0,0-2.61-.39,31,31,0,0,1-5.4-.49,26.46,26.46,0,0,1,2.77-.15c2.51,0,5,.34,5.22,1Z" style="fill:#dae2e5;mix-blend-mode:screen;opacity:0.30000000000000004"/><path d="M131.25,387.38H101.51l1.11-2.55h1.66c-.3,1.9.16,2,5.27,2s16.19-.14,21.39-.21Z" style="fill:#dae2e5;mix-blend-mode:multiply"/><path d="M134.55,390.49H98.21l1.36-3.11h3.23c-.84,1.81-1.13,2.54,2.63,2.54H134.3Z" style="fill:#dae2e5;mix-blend-mode:multiply"/><path d="M133.19,387.38H104.64s4.21.47,14.72.47S133.19,387.38,133.19,387.38Z" style="fill:#dae2e5"/></g></g></svg>