<svg xmlns="http://www.w3.org/2000/svg" viewBox="0 0 1000 390"><g style="isolation:isolate"><g id="Layer_1" data-name="Layer 1"><path d="M665.85,390.49V343.26H668v-5.09h7v5.09h2.82v-5.2h4.07v-3.62h6.9v3.62h1.13v5.2h2.14v9.26h2.83v3.62h1.69v20.34h2V364.16h1v-3.5h4.64v2.94h1.13V361h1.92v-1.81h4.29v4.86h2.15V353.43h7.57v9h1.24v-32.1h1.81v-9.15h3.84v9.15h1.47v46h1.47v-32.1h1.36v-4.4h5.42v4.29h2v-6.89l1-1,1.3,1.3v6.61h1.42v9.49h2.37v4h1.81v-3.73h2.93v-2.71h7V378h4V375.8h3.5v-2.71h6v3.39h2.94v9H778v-8.93h5.31v-2.93h3V367h8.25V350.26h1.92v-1.8H800v-2.83h2.6v-2.15l1.92-1.13,1.25,1.13v-2.37l1.35-1.36,1.7,1.47V369.7h2.14v-9.6h7.69v3.84h1.69v-2.71h4.52V355.8h9.61v-4.75h10.17v4.86h2.48v-5l1.7-1.24,1.58,1.24v1.92h5.54V356h1.13v20.22h2.37V337.49h2.15v-2.82h-.9v-4.75l2-1.35,1.92,1.35v4.75h-.9v2.71h2.82v-4.75h6.33v4.75h1.58V339h-.79V380.1h1.47V364.05h9.38V361h4.18v2.94h1v1.47H889v20.9h2.15V363.82h9v-2.59h4.29v2.71H908V340.88h1.36V336.7h1.81v-3.16l1.35-1.36L914,333.6V336h2.2v4.85h5V378.4h9.16V325.18h1.58v-1.64h3.28v-6.16h1.8v-3.62l1.36-1.35,1.64,1.64v3.33h1.64v6.16h1.8V345.4H948v-8h1.24v-5.2h5.43v5h1.69v-8l1.24-1.24,1.3,1.3v7.63h1.75v15.93h2.15v3.39h6.67V344.61h7.12V339h8.93v4.3h2.37v25.08h1.58V336.48h5.09v-5.2H1000v59.21S665.85,390.38,665.85,390.49Z" style="fill:#e6e6e6"/><path d="M333.45,390.49V343.26h2.15v-5.09h7v5.09h2.82v-5.2h4.07v-3.62h6.89v3.62h1.13v5.2h2.15v9.26h2.83v3.62h1.69v20.34h2V364.16h1v-3.5h4.64v2.94H373V361h1.92v-1.81h4.29v4.86h2.15V353.43h7.57v9h1.24v-32.1H392v-9.15h3.84v9.15h1.47v46h1.47v-32.1h1.36v-4.4h5.42v4.29h2v-6.89l1-1,1.3,1.3v6.61h1.41v9.49h2.38v4h1.81v-3.73h2.93v-2.71h7V378h3.95V375.8h3.51v-2.71h6v3.39h2.94v9h3.72v-8.93h5.32v-2.93h3.05V367h8.25V350.26h1.92v-1.8h3.5v-2.83h2.6v-2.15l1.92-1.13,1.24,1.13v-2.37l1.36-1.36,1.69,1.47V369.7h2.15v-9.6h7.69v3.84h1.69v-2.71h4.52V355.8h9.61v-4.75h10.17v4.86h2.48v-5l1.7-1.24,1.58,1.24v1.92h5.54V356h1.13v20.22H527V337.49h2.15v-2.82h-.91v-4.75l2-1.35,1.92,1.35v4.75h-.9v2.71h2.82v-4.75h6.33v4.75h1.58V339h-.79V380.1h1.47V364.05h9.38V361h4.18v2.94h1v1.47h-.68v20.9h2.15V363.82h9v-2.59h4.29v2.71h3.5V340.88H577V336.7h1.81v-3.16l1.35-1.36,1.42,1.42V336h2.2v4.85h5V378.4h9.15V325.18h1.59v-1.64h3.27v-6.16h1.81v-3.62l1.36-1.35,1.64,1.64v3.33h1.64v6.16H611V345.4h4.64v-8h1.24v-5.2h5.42v5H624v-8l1.24-1.24,1.3,1.3v7.63h1.75v15.93h2.15v3.39h6.67V344.61h7.12V339h8.92v4.3h2.38v25.08h1.58V336.48h5.08v-5.2h5.43v59.21S333.45,390.38,333.45,390.49Z" style="fill:#e6e6e6"/><path d="M0,390.49V343.26H2.15v-5.09h7v5.09H12v-5.2h4.07v-3.62h6.89v3.62h1.13v5.2h2.15v9.26H29v3.62h1.7v20.34h2V364.16h1v-3.5h4.63v2.94h1.13V361h1.92v-1.81h4.3v4.86h2.14V353.43h7.58v9h1.24v-32.1h1.81v-9.15h3.84v9.15h1.47v46h1.47v-32.1h1.35v-4.4H72.1v4.29h2v-6.89l1-1,1.3,1.3v6.61h1.41v9.49h2.37v4H82v-3.73H85v-2.71h7V378h4V375.8h3.5v-2.71h6v3.39h2.94v9h3.73v-8.93h5.31v-2.93h3V367h8.25V350.26h1.92v-1.8h3.51v-2.83h2.6v-2.15l1.92-1.13,1.24,1.13v-2.37l1.36-1.36,1.69,1.47V369.7h2.15v-9.6h7.68v3.84h1.7v-2.71H159V355.8h9.6v-4.75h10.17v4.86h2.49v-5L183,349.7l1.59,1.24v1.92h5.53V356h1.13v20.22h2.38V337.49h2.14v-2.82h-.9v-4.75l2-1.35,1.93,1.35v4.75h-.91v2.71h2.83v-4.75H207v4.75h1.59V339h-.79V380.1h1.46V364.05h9.38V361h4.18v2.94h1v1.47h-.68v20.9h2.15V363.82h9v-2.59h4.3v2.71h3.5V340.88h1.35V336.7h1.81v-3.16l1.36-1.36,1.41,1.42V336h2.21v4.85h5V378.4h9.15V325.18H266v-1.64h3.28v-6.16h1.81v-3.62l1.35-1.35,1.64,1.64v3.33h1.64v6.16h1.81V345.4h4.63v-8h1.25v-5.2h5.42v5h1.69v-8l1.25-1.24,1.3,1.3v7.63h1.75v15.93H297v3.39h6.66V344.61h7.12V339h8.93v4.3h2.37v25.08h1.59V336.48h5.08v-5.2h5.42v59.21S0,390.38,0,390.49Z" style="fill:#e6e6e6"/><polygon points="915.13 271.19 918.86 283.92 917.55 283.92 913.83 271.19 915.13 271.19" style="fill:#bbc6cd"/><path d="M919.49,230.35a7.65,7.65,0,1,1-7.65-7.65,6.86,6.86,0,0,1,1,.07A7.63,7.63,0,0,1,919.49,230.35Z" style="fill:#708088"/><path d="M916.57,236.36a7.65,7.65,0,1,1-4.73-13.66,6.86,6.86,0,0,1,1,.07C908.32,224.77,909.21,237.31,916.57,236.36Z" style="fill:#b8c7cd;mix-blend-mode:multiply"/><path d="M917.52,387.77l-.43-.39,4.56-5.06-4.84-5a.28.28,0,0,1,0-.38l4.31-5.23-4.42-5.1a.3.3,0,0,1,0-.38l4-4.9-4.23-4.58a.29.29,0,0,1,0-.37l3.63-4.78-3.8-4.15a.29.29,0,0,1,0-.39l3.45-4.11-3.63-4.36a.3.3,0,0,1,0-.37l3.24-4.26-3.48-4.23a.29.29,0,0,1,0-.37l3.17-3.72-3.35-3.84a.29.29,0,0,1,0-.38l3-3.6-3.15-3.33a.28.28,0,0,1,0-.37l2.88-4-3.17-3.65a.29.29,0,0,1,0-.36l2.86-3.93-3.2-3.54a.29.29,0,0,1,0-.37l2.88-3.77-2.7-3.38a.29.29,0,0,1,0-.34l2.52-3.93.49.32-2.41,3.75,2.72,3.39a.29.29,0,0,1,0,.36l-2.88,3.76,3.21,3.53a.29.29,0,0,1,0,.37l-2.86,3.93,3.17,3.65a.29.29,0,0,1,0,.36l-2.88,4,3.16,3.35a.29.29,0,0,1,0,.38l-3,3.61,3.35,3.85a.29.29,0,0,1,0,.38l-3.18,3.72,3.48,4.22a.29.29,0,0,1,0,.36l-3.25,4.26,3.63,4.38a.29.29,0,0,1,0,.37l-3.44,4.1,3.8,4.15a.29.29,0,0,1,0,.37L917,356.5l4.24,4.6a.28.28,0,0,1,0,.38l-4,4.9,4.42,5.1a.3.3,0,0,1,0,.38l-4.3,5.22,4.85,5a.29.29,0,0,1,0,.4Z" style="fill:#99a6ae"/><path d="M898.26,387.77l.43-.39-4.56-5.06,4.84-5a.29.29,0,0,0,0-.38l-4.32-5.23,4.42-5.1a.3.3,0,0,0,0-.38l-4-4.9,4.23-4.58a.28.28,0,0,0,0-.37l-3.63-4.78,3.81-4.15a.3.3,0,0,0,0-.39l-3.46-4.11,3.63-4.36a.3.3,0,0,0,0-.37l-3.25-4.26L900,329.7a.29.29,0,0,0,0-.37l-3.17-3.72,3.36-3.84a.3.3,0,0,0,0-.38l-3-3.6,3.14-3.33a.29.29,0,0,0,0-.37l-2.89-4,3.17-3.65a.29.29,0,0,0,0-.36l-2.86-3.93,3.21-3.54a.29.29,0,0,0,0-.37l-2.88-3.77,2.7-3.38a.29.29,0,0,0,0-.34l-2.52-3.93-.49.32,2.41,3.75-2.72,3.39a.3.3,0,0,0,0,.36l2.87,3.76-3.2,3.53a.29.29,0,0,0,0,.37l2.86,3.93-3.17,3.65a.29.29,0,0,0,0,.36l2.88,4-3.15,3.35a.28.28,0,0,0,0,.38l3,3.61-3.35,3.85a.28.28,0,0,0,0,.38l3.17,3.72-3.48,4.22a.3.3,0,0,0,0,.36l3.25,4.26-3.63,4.38a.29.29,0,0,0,0,.37l3.44,4.1-3.79,4.15a.28.28,0,0,0,0,.37l3.63,4.77-4.24,4.6a.29.29,0,0,0,0,.38l4,4.9-4.42,5.1a.3.3,0,0,0,0,.38l4.3,5.22-4.85,5a.29.29,0,0,0,0,.4Z" style="fill:#bbc6cd"/><path d="M922.24,387.84l-5.41-5.12a.31.31,0,0,1,0-.41l4.66-5.33-4.81-5a.3.3,0,0,1,0-.39l4.33-5.36-4.48-4.46a.29.29,0,0,1,0-.4l4-4.69-4.33-4.81a.29.29,0,0,1,0-.39l3.94-4.28-4.11-4a.29.29,0,0,1,0-.4l3.75-4.3-4-4.31a.29.29,0,0,1,0-.39l3.59-4.29-3.67-3.77a.28.28,0,0,1,0-.39l3.25-3.79-3.45-3.78a.29.29,0,0,1,0-.4l3.13-3.29-3.39-3.85a.3.3,0,0,1,0-.37l3.1-3.86-3.3-3.62a.29.29,0,0,1,0-.38l3-3.75-3-3.53a.29.29,0,0,1,0-.37l2.67-3.38-2.9-3.84.46-.35,3,4a.27.27,0,0,1,0,.35l-2.65,3.37,3,3.53a.29.29,0,0,1,0,.38l-3,3.74,3.3,3.62a.3.3,0,0,1,0,.38l-3.1,3.86,3.4,3.87a.28.28,0,0,1,0,.39L916,317.61l3.43,3.77a.3.3,0,0,1,0,.39l-3.24,3.78,3.67,3.77a.29.29,0,0,1,0,.39l-3.6,4.29,4,4.31a.28.28,0,0,1,0,.39L916.62,343l4.12,4a.29.29,0,0,1,0,.41l-4,4.29,4.32,4.8a.3.3,0,0,1,0,.39l-4,4.68,4.47,4.45a.3.3,0,0,1,0,.39l-4.33,5.37,4.82,5a.29.29,0,0,1,0,.39l-4.65,5.32,5.2,4.93Z" style="fill:#bbc6cd"/><path d="M893.54,387.84l5.41-5.12a.31.31,0,0,0,0-.41L894.31,377l4.81-5a.3.3,0,0,0,0-.39l-4.33-5.36,4.48-4.46a.29.29,0,0,0,0-.4l-4-4.69,4.33-4.81a.29.29,0,0,0,0-.39l-3.94-4.28,4.11-4a.29.29,0,0,0,0-.4l-3.75-4.3,4-4.31a.29.29,0,0,0,0-.39l-3.59-4.29,3.68-3.77a.29.29,0,0,0,0-.39l-3.24-3.79,3.44-3.78a.29.29,0,0,0,0-.4l-3.13-3.29,3.39-3.85a.29.29,0,0,0,0-.37L897.54,306l3.29-3.62a.3.3,0,0,0,0-.38l-3-3.75,3-3.53a.28.28,0,0,0,0-.37L898.28,291l2.89-3.84-.46-.35-3,4a.29.29,0,0,0,0,.35l2.66,3.37-3.05,3.53a.3.3,0,0,0,0,.38l3,3.74-3.3,3.62a.29.29,0,0,0,0,.38l3.09,3.86-3.4,3.87a.29.29,0,0,0,0,.39l3.13,3.29-3.44,3.77a.29.29,0,0,0,0,.39l3.23,3.78-3.67,3.77a.29.29,0,0,0,0,.39l3.59,4.29-4,4.31a.29.29,0,0,0,0,.39l3.74,4.29L895,347a.3.3,0,0,0,0,.41l4,4.29-4.32,4.8a.3.3,0,0,0,0,.39l4,4.68L894.22,366a.28.28,0,0,0,0,.39l4.32,5.37-4.81,5a.28.28,0,0,0,0,.39l4.65,5.32-5.21,4.93Z" style="fill:#99a6ae"/><rect x="907.4" y="114.3" width="0.99" height="169.63" style="fill:#6c7f86"/><polygon points="912.91 115.17 903.27 123.47 902.87 123.12 912.51 114.83 912.91 115.17" style="fill:#b3191b"/><polygon points="902.87 115.17 912.51 123.47 912.91 123.12 903.27 114.83 902.87 115.17" style="fill:#d71d1d"/><polygon points="912.91 123.66 903.27 131.95 902.87 131.61 912.51 123.32 912.91 123.66" style="fill:#b3191b"/><polygon points="902.87 123.66 912.51 131.95 912.91 131.61 903.27 123.32 902.87 123.66" style="fill:#d71d1d"/><polygon points="912.91 132.15 903.27 140.44 902.87 140.1 912.51 131.81 912.91 132.15" style="fill:#b3191b"/><polygon points="902.87 132.15 912.51 140.44 912.91 140.1 903.27 131.81 902.87 132.15" style="fill:#d71d1d"/><polygon points="912.91 140.64 903.27 148.93 902.87 148.59 912.51 140.29 912.91 140.64" style="fill:#b3191b"/><polygon points="902.87 140.64 912.51 148.93 912.91 148.59 903.27 140.29 902.87 140.64" style="fill:#d71d1d"/><polygon points="912.91 149.13 903.27 157.42 902.87 157.08 912.51 148.78 912.91 149.13" style="fill:#b3191b"/><polygon points="902.87 149.13 912.51 157.42 912.91 157.08 903.27 148.78 902.87 149.13" style="fill:#d71d1d"/><polygon points="912.91 157.61 903.27 165.91 902.87 165.56 912.51 157.27 912.91 157.61" style="fill:#b3191b"/><polygon points="902.87 157.61 912.51 165.91 912.91 165.56 903.27 157.27 902.87 157.61" style="fill:#d71d1d"/><polygon points="912.91 166.1 903.27 174.39 902.87 174.05 912.51 165.76 912.91 166.1" style="fill:#b3191b"/><polygon points="902.87 166.1 912.51 174.39 912.91 174.05 903.27 165.76 902.87 166.1" style="fill:#d71d1d"/><polygon points="912.91 174.59 903.27 182.88 902.87 182.54 912.51 174.25 912.91 174.59" style="fill:#b3191b"/><polygon points="902.87 174.59 912.51 182.88 912.91 182.54 903.27 174.25 902.87 174.59" style="fill:#d71d1d"/><polygon points="912.91 183.08 903.27 191.37 902.87 191.03 912.51 182.74 912.91 183.08" style="fill:#b3191b"/><polygon points="902.87 183.08 912.51 191.37 912.91 191.03 903.27 182.74 902.87 183.08" style="fill:#d71d1d"/><polygon points="912.91 191.57 903.27 199.86 902.87 199.52 912.51 191.22 912.91 191.57" style="fill:#b3191b"/><polygon points="902.87 191.57 912.51 199.86 912.91 199.52 903.27 191.22 902.87 191.57" style="fill:#d71d1d"/><polygon points="912.91 200.05 903.27 208.35 902.87 208 912.51 199.71 912.91 200.05" style="fill:#b3191b"/><polygon points="902.87 200.05 912.51 208.35 912.91 208 903.27 199.71 902.87 200.05" style="fill:#d71d1d"/><polygon points="912.91 208.54 903.27 216.84 902.87 216.49 912.51 208.2 912.91 208.54" style="fill:#b3191b"/><polygon points="902.87 208.54 912.51 216.84 912.91 216.49 903.27 208.2 902.87 208.54" style="fill:#d71d1d"/><polygon points="912.91 217.03 903.27 225.32 902.87 224.98 912.51 216.69 912.91 217.03" style="fill:#b3191b"/><polygon points="902.87 217.03 912.51 225.32 912.91 224.98 903.27 216.69 902.87 217.03" style="fill:#d71d1d"/><polygon points="912.91 225.52 903.27 233.81 902.87 233.47 912.51 225.18 912.91 225.52" style="fill:#b3191b"/><polygon points="902.87 225.52 912.51 233.81 912.91 233.47 903.27 225.18 902.87 225.52" style="fill:#d71d1d"/><polygon points="912.91 234.01 903.27 242.3 902.87 241.96 912.51 233.67 912.91 234.01" style="fill:#b3191b"/><polygon points="902.87 234.01 912.51 242.3 912.91 241.96 903.27 233.67 902.87 234.01" style="fill:#d71d1d"/><polygon points="912.91 242.5 903.27 250.79 902.87 250.45 912.51 242.15 912.91 242.5" style="fill:#b3191b"/><polygon points="902.87 242.5 912.51 250.79 912.91 250.45 903.27 242.15 902.87 242.5" style="fill:#d71d1d"/><polygon points="912.91 250.98 903.27 259.28 902.87 258.93 912.51 250.64 912.91 250.98" style="fill:#b3191b"/><polygon points="902.87 250.98 912.51 259.28 912.91 258.93 903.27 250.64 902.87 250.98" style="fill:#d71d1d"/><polygon points="912.91 259.47 903.27 267.76 902.87 267.42 912.51 259.13 912.91 259.47" style="fill:#b3191b"/><polygon points="902.87 259.47 912.51 267.76 912.91 267.42 903.27 259.13 902.87 259.47" style="fill:#d71d1d"/><polygon points="912.91 267.96 903.27 276.25 902.87 275.91 912.51 267.62 912.91 267.96" style="fill:#b3191b"/><polygon points="902.87 267.96 912.51 276.25 912.91 275.91 903.27 267.62 902.87 267.96" style="fill:#d71d1d"/><polygon points="912.91 276.45 903.27 284.74 902.87 284.4 912.51 276.11 912.91 276.45" style="fill:#b3191b"/><polygon points="902.87 276.45 912.51 284.74 912.91 284.4 903.27 276.11 902.87 276.45" style="fill:#d71d1d"/><polygon points="908.38 114.3 907.4 114.3 907.75 109.94 908.03 109.94 908.38 114.3" style="fill:#6c7f86"/><polygon points="913.16 114.3 912.66 114.3 909.26 109.94 909.4 109.94 913.16 114.3" style="fill:#d71d1d"/><polygon points="902.63 114.3 903.12 114.3 906.52 109.94 906.38 109.94 902.63 114.3" style="fill:#b3191b"/><rect x="906.38" y="109.49" width="3.02" height="0.45" style="fill:#99a6ae"/><path d="M909,109.49l-1-35.8a.1.1,0,0,0-.19,0l-1,35.8Z" style="fill:#bbc6cd"/><path d="M906,74.26A20.07,20.07,0,0,1,909.79,73,21.07,21.07,0,0,1,906,74.26Z" style="fill:#4b5964"/><path d="M909.79,74.26A20.81,20.81,0,0,1,906,73a20.55,20.55,0,0,1,3.79,1.26Z" style="fill:#4b5964"/><rect x="902.62" y="114.3" width="10.53" height="0.93" style="fill:#961817"/><rect x="902.62" y="122.79" width="10.53" height="0.93" style="fill:#961817"/><rect x="902.62" y="131.28" width="10.53" height="0.93" style="fill:#961817"/><rect x="902.62" y="139.77" width="10.53" height="0.93" style="fill:#961817"/><rect x="902.62" y="148.26" width="10.53" height="0.93" style="fill:#961817"/><rect x="902.62" y="156.75" width="10.53" height="0.93" style="fill:#961817"/><rect x="902.62" y="165.24" width="10.53" height="0.93" style="fill:#b3191b"/><rect x="902.62" y="173.73" width="10.53" height="0.93" style="fill:#961817"/><rect x="902.62" y="182.22" width="10.53" height="0.93" style="fill:#961817"/><rect x="902.62" y="190.71" width="10.53" height="0.93" style="fill:#961817"/><rect x="902.62" y="199.2" width="10.53" height="0.93" style="fill:#961817"/><rect x="902.62" y="207.69" width="10.53" height="0.93" style="fill:#961817"/><rect x="902.62" y="216.18" width="10.53" height="0.93" style="fill:#961817"/><rect x="902.62" y="224.67" width="10.53" height="0.93" style="fill:#961817"/><rect x="902.62" y="233.16" width="10.53" height="0.93" style="fill:#961817"/><rect x="902.62" y="241.65" width="10.53" height="0.93" style="fill:#961817"/><rect x="902.62" y="250.14" width="10.53" height="0.93" style="fill:#961817"/><rect x="902.62" y="258.63" width="10.53" height="0.93" style="fill:#961817"/><rect x="902.62" y="267.12" width="10.53" height="0.93" style="fill:#961817"/><rect x="902.62" y="275.61" width="10.53" height="0.93" style="fill:#961817"/><rect x="912.66" y="114.3" width="0.49" height="169.63" style="fill:#d71d1d"/><rect x="902.62" y="114.3" width="0.49" height="169.63" transform="translate(1805.74 398.22) rotate(180)" style="fill:#b3191b"/><rect x="907.4" y="285.83" width="0.99" height="101.28" style="fill:#6c7f86"/><polygon points="912.91 286.94 903.27 296.34 902.87 295.96 912.51 286.55 912.91 286.94" style="fill:#b3191b"/><polygon points="902.87 286.94 912.51 296.34 912.91 295.96 903.27 286.55 902.87 286.94" style="fill:#d71d1d"/><polygon points="912.91 296.75 903.27 306.48 902.87 306.08 912.51 296.34 912.91 296.75" style="fill:#b3191b"/><polygon points="902.87 296.75 912.51 306.48 912.91 306.08 903.27 296.34 902.87 296.75" style="fill:#d71d1d"/><polygon points="912.91 306.88 903.27 316.62 902.87 316.22 912.51 306.48 912.91 306.88" style="fill:#b3191b"/><polygon points="902.87 306.88 912.51 316.62 912.91 316.22 903.27 306.48 902.87 306.88" style="fill:#d71d1d"/><polygon points="912.91 317.02 903.27 326.75 902.87 326.35 912.51 316.62 912.91 317.02" style="fill:#b3191b"/><polygon points="902.87 317.02 912.51 326.75 912.91 326.35 903.27 316.62 902.87 317.02" style="fill:#d71d1d"/><polygon points="912.91 327.15 903.27 336.89 902.87 336.49 912.51 326.75 912.91 327.15" style="fill:#b3191b"/><polygon points="902.87 327.15 912.51 336.89 912.91 336.49 903.27 326.75 902.87 327.15" style="fill:#d71d1d"/><polygon points="912.91 337.29 903.27 347.03 902.87 346.63 912.51 336.89 912.91 337.29" style="fill:#b3191b"/><polygon points="902.87 337.29 912.51 347.03 912.91 346.63 903.27 336.89 902.87 337.29" style="fill:#d71d1d"/><polygon points="912.91 347.43 903.27 357.16 902.87 356.76 912.51 347.03 912.91 347.43" style="fill:#b3191b"/><polygon points="902.87 347.43 912.51 357.16 912.91 356.76 903.27 347.03 902.87 347.43" style="fill:#d71d1d"/><polygon points="912.91 357.56 903.27 367.3 902.87 366.9 912.51 357.16 912.91 357.56" style="fill:#b3191b"/><polygon points="902.87 357.56 912.51 367.3 912.91 366.9 903.27 357.16 902.87 357.56" style="fill:#d71d1d"/><polygon points="912.91 367.7 903.27 377.44 902.87 377.04 912.51 367.3 912.91 367.7" style="fill:#b3191b"/><polygon points="902.87 367.7 912.51 377.44 912.91 377.04 903.27 367.3 902.87 367.7" style="fill:#d71d1d"/><polygon points="912.91 377.84 903.27 387.57 902.87 387.17 912.51 377.44 912.91 377.84" style="fill:#b3191b"/><polygon points="902.87 377.84 912.51 387.57 912.91 387.17 903.27 377.44 902.87 377.84" style="fill:#d71d1d"/><rect x="900.76" y="295.88" width="14.27" height="0.93" style="fill:#961817"/><rect x="900.61" y="306.02" width="14.56" height="0.93" style="fill:#961817"/><rect x="900.29" y="316.15" width="15.21" height="0.93" style="fill:#961817"/><rect x="900.11" y="326.29" width="15.56" height="0.93" style="fill:#961817"/><rect x="899.82" y="336.43" width="16.15" height="0.93" style="fill:#961817"/><rect x="899.46" y="346.56" width="16.86" height="0.93" style="fill:#961817"/><rect x="899.19" y="356.7" width="17.41" height="0.93" style="fill:#961817"/><rect x="899.07" y="366.83" width="17.63" height="0.93" style="fill:#961817"/><rect x="898.69" y="376.97" width="18.41" height="0.93" style="fill:#961817"/><rect x="912.66" y="285.83" width="0.49" height="101.28" style="fill:#d71d1d"/><rect x="902.62" y="285.83" width="0.49" height="101.28" transform="translate(1805.74 672.94) rotate(180)" style="fill:#b3191b"/><rect x="897.58" y="285.83" width="20.61" height="1.44" style="fill:#99a6ae"/><rect x="915.13" y="260.77" width="0.28" height="8.61" style="fill:#99a6ae"/><rect x="913.68" y="250.9" width="0.28" height="1.32" transform="translate(1165.38 -662.26) rotate(90)" style="fill:#4b5964"/><rect x="913.68" y="256.51" width="0.28" height="1.32" transform="translate(1170.99 -656.64) rotate(90)" style="fill:#4b5964"/><rect x="914.47" y="247.89" width="1.6" height="12.89" rx="0.69" style="fill:#99a6ae"/><rect x="900.37" y="260.77" width="0.28" height="8.61" transform="translate(1801.02 530.15) rotate(180)" style="fill:#99a6ae"/><rect x="901.83" y="250.9" width="0.28" height="1.32" transform="translate(1153.53 -650.41) rotate(90)" style="fill:#4b5964"/><rect x="901.83" y="256.51" width="0.28" height="1.32" transform="translate(1159.14 -644.79) rotate(90)" style="fill:#4b5964"/><rect x="899.71" y="247.89" width="1.6" height="12.89" rx="0.69" transform="translate(1801.02 508.66) rotate(180)" style="fill:#99a6ae"/><polygon points="915.13 271.19 900.65 271.19 900.65 272.47 915.51 272.47 915.13 271.19" style="fill:#99a6ae"/><polygon points="900.65 271.19 896.93 283.92 898.24 283.92 901.95 271.19 900.65 271.19" style="fill:#99a6ae"/><polygon points="921.94 387.11 917.31 287.27 918.2 287.27 922.83 387.11 921.94 387.11" style="fill:#bbc6cd"/><polygon points="893.85 387.11 898.48 287.27 897.59 287.27 892.96 387.11 893.85 387.11" style="fill:#99a6ae"/><polygon points="916.79 387.11 914.4 287.27 915.29 287.27 917.69 387.11 916.79 387.11" style="fill:#99a6ae"/><polygon points="898.99 387.11 901.38 287.27 900.49 287.27 898.1 387.11 898.99 387.11" style="fill:#bbc6cd"/><polygon points="926.7 390.49 889.09 390.49 890 387.11 925.79 387.11 926.39 389.37 926.7 390.49" style="fill:#dae2e5"/><path d="M917.61,190.5c.48,3.25-.23,6-1.6,6.24s-2.85-2.27-3.33-5.51.24-6,1.6-6.25S917.13,187.26,917.61,190.5Z" style="fill:#b6c1c7"/><path d="M917.35,190.54c.42,2.9-.15,5.38-1.27,5.54s-2.39-2-2.82-4.94.14-5.37,1.27-5.54S916.92,187.65,917.35,190.54Z" style="fill:#e4e9ec"/><path d="M915.1,190.87c.27,1.8.07,3.31-.44,3.39s-1.13-1.32-1.4-3.12-.06-3.31.44-3.38S914.84,189.08,915.1,190.87Z" style="fill:#dae2e5;mix-blend-mode:multiply;opacity:0.7000000000000001"/><path d="M916,196.74c-2.43.36-4.66-2.67-5-5.3s.83-6.09,3.31-6.46c-1.36.2-2.08,3-1.6,6.25S914.65,196.94,916,196.74Z" style="fill:#708088"/><path d="M913.89,191.15a.11.11,0,0,1-.1-.09.1.1,0,0,1,.08-.11l6-.88a.09.09,0,0,1,.11.09.1.1,0,0,1-.08.11l-6,.88Z" style="fill:#b6c1c7"/><path d="M919.86,190.27h0l-6.21-2a.09.09,0,0,1-.06-.12.11.11,0,0,1,.12-.07l6.21,2a.09.09,0,0,1,.06.12A.1.1,0,0,1,919.86,190.27Z" style="fill:#b6c1c7"/><path d="M914.49,194a.12.12,0,0,1-.08,0,.1.1,0,0,1,0-.14l5.37-3.71a.09.09,0,0,1,.13,0,.09.09,0,0,1,0,.13L914.55,194Z" style="fill:#b6c1c7"/><ellipse cx="900.24" cy="161.59" rx="5.32" ry="2.23" transform="matrix(0.1, -0.99, 0.99, 0.1, 648.65, 1040.93)" style="fill:#b6c1c7"/><path d="M898.25,161.39c-.26,2.6.35,4.79,1.36,4.9s2.06-1.93,2.32-4.53-.34-4.8-1.36-4.9S898.52,158.78,898.25,161.39Z" style="fill:#e4e9ec"/><path d="M899.7,166.88c2.19.22,4-2.58,4.29-4.95s-1-5.41-3.22-5.64c1.22.13,2,2.6,1.68,5.52S900.92,167,899.7,166.88Z" style="fill:#708088"/><path d="M899.7,161.53c-.21,2.06.12,3.78.74,3.84s1.28-1.56,1.49-3.61-.12-3.78-.74-3.84S899.91,159.47,899.7,161.53Z" style="fill:#dae2e5;mix-blend-mode:multiply;opacity:0.7000000000000001"/><path d="M901.37,161.8h0l-5.38-.55a.1.1,0,0,1-.09-.11.1.1,0,0,1,.11-.08l5.38.54a.12.12,0,0,1,.09.11A.11.11,0,0,1,901.37,161.8Z" style="fill:#b6c1c7"/><path d="M896,161.25a.09.09,0,0,1-.09-.06.1.1,0,0,1,.06-.13l5.47-2a.09.09,0,0,1,.12.06.09.09,0,0,1,0,.12L896,161.25Z" style="fill:#b6c1c7"/><path d="M900.94,164.35h-.05l-4.95-3.1a.1.1,0,0,1,0-.14.1.1,0,0,1,.13,0l5,3.1a.1.1,0,0,1,0,.14A.12.12,0,0,1,900.94,164.35Z" style="fill:#b6c1c7"/><path d="M916.81,136.88c.08,2.13-.58,3.89-1.48,3.92s-1.69-1.67-1.77-3.8.59-3.9,1.48-3.93S916.73,134.74,916.81,136.88Z" style="fill:#b6c1c7"/><path d="M916.63,136.88c.07,1.91-.47,3.47-1.21,3.5S914,138.89,914,137s.47-3.46,1.21-3.49S916.56,135,916.63,136.88Z" style="fill:#e4e9ec"/><path d="M915.33,140.8c-1.6.06-2.83-2.05-2.89-3.79s1-3.88,2.6-3.94c-.89,0-1.56,1.79-1.48,3.93S914.44,140.84,915.33,140.8Z" style="fill:#708088"/><path d="M915.54,136.92c.06,1.45-.26,2.63-.7,2.65S914,138.43,914,137s.26-2.62.7-2.64S915.49,135.48,915.54,136.92Z" style="fill:#dae2e5;mix-blend-mode:multiply;opacity:0.7000000000000001"/><path d="M914.36,137.07a.1.1,0,0,1-.1-.1.1.1,0,0,1,.09-.1l3.93-.14c.06,0,.1,0,.1.09a.09.09,0,0,1-.09.1l-3.93.15Z" style="fill:#b6c1c7"/><path d="M918.29,136.92h0l-3.88-1.73a.1.1,0,0,1,0-.13.1.1,0,0,1,.13-.05l3.88,1.73a.1.1,0,0,1,0,.13A.08.08,0,0,1,918.29,136.92Z" style="fill:#b6c1c7"/><path d="M914.55,138.94a.12.12,0,0,1-.09-.05.11.11,0,0,1,0-.13l3.74-2a.09.09,0,0,1,.13,0,.09.09,0,0,1,0,.13l-3.73,2Z" style="fill:#b6c1c7"/><path d="M915.23,123.76c0,1.22-.33,2.22-.84,2.24s-1-1-1-2.17.33-2.21.84-2.23S915.19,122.55,915.23,123.76Z" style="fill:#b6c1c7"/><path d="M915.13,123.77c0,1.08-.27,2-.69,2s-.79-.85-.83-1.93.27-2,.69-2S915.09,122.69,915.13,123.77Z" style="fill:#e4e9ec"/><path d="M914.39,126c-.91,0-1.6-1.17-1.64-2.16s.55-2.2,1.48-2.24c-.51,0-.89,1-.84,2.23S913.88,126,914.39,126Z" style="fill:#708088"/><path d="M913.84,123.91a.1.1,0,0,1-.1-.09.1.1,0,0,1,.1-.1l2.23-.08h0a.1.1,0,1,1,0,.19l-2.24.08Z" style="fill:#b6c1c7"/><path d="M916.07,123.83h0l-2.2-1a.1.1,0,0,1-.05-.13.1.1,0,0,1,.13,0l2.2,1a.09.09,0,0,1,0,.18Z" style="fill:#b6c1c7"/><path d="M914,125a.1.1,0,0,1-.05-.18l2.13-1.15a.09.09,0,0,1,.13,0,.1.1,0,0,1,0,.13L914,125Z" style="fill:#b6c1c7"/><path d="M914.55,123.79c0,.84-.15,1.54-.41,1.55s-.5-.67-.53-1.51.15-1.54.41-1.55S914.52,123,914.55,123.79Z" style="fill:#dae2e5;mix-blend-mode:multiply;opacity:0.7000000000000001"/><path d="M900.39,126.47c0,1.21.33,2.21.84,2.23s1-.95,1-2.16-.33-2.21-.84-2.23S900.43,125.26,900.39,126.47Z" style="fill:#b6c1c7"/><path d="M900.49,126.48c0,1.08.27,2,.69,2s.79-.85.83-1.93-.27-2-.69-2S900.53,125.39,900.49,126.48Z" style="fill:#e4e9ec"/><path d="M901.23,128.7c.91,0,1.6-1.17,1.64-2.15s-.55-2.21-1.48-2.24c.51,0,.89,1,.84,2.23S901.74,128.72,901.23,128.7Z" style="fill:#708088"/><path d="M901,126.49c0,.88.18,1.6.47,1.61s.56-.69.59-1.57-.18-1.59-.47-1.6S901,125.62,901,126.49Z" style="fill:#dae2e5;mix-blend-mode:multiply;opacity:0.7000000000000001"/><path d="M901.78,126.62h0l-2.24-.08a.1.1,0,0,1-.09-.1.11.11,0,0,1,.1-.1l2.23.09a.09.09,0,0,1,.1.1A.1.1,0,0,1,901.78,126.62Z" style="fill:#b6c1c7"/><path d="M899.55,126.54a.09.09,0,0,1-.09-.06.1.1,0,0,1,0-.13l2.2-1a.1.1,0,1,1,.08.18l-2.2,1Z" style="fill:#b6c1c7"/><path d="M901.67,127.69l0,0-2.12-1.14a.11.11,0,0,1,0-.14.1.1,0,0,1,.13,0l2.13,1.14a.11.11,0,0,1,0,.13A.1.1,0,0,1,901.67,127.69Z" style="fill:#b6c1c7"/><path d="M890.38,348.26c-.36,2.58.23,4.8,1.31,4.95s2.26-1.83,2.61-4.41-.23-4.8-1.31-4.95S890.74,345.68,890.38,348.26Z" style="fill:#b6c1c7"/><path d="M890.59,348.29c-.32,2.3.15,4.27,1,4.39s1.88-1.64,2.2-3.94-.15-4.27-1.05-4.4S890.91,346,890.59,348.29Z" style="fill:#e4e9ec"/><path d="M891.69,353.21c1.94.27,3.69-2.16,4-4.25s-.71-4.84-2.68-5.11c1.08.15,1.67,2.37,1.31,4.95S892.77,353.36,891.69,353.21Z" style="fill:#708088"/><path d="M892,348.49c-.23,1.64,0,3,.49,3.1s1.09-1.21,1.32-2.85,0-3-.49-3.11S892.25,346.84,892,348.49Z" style="fill:#dae2e5;mix-blend-mode:multiply;opacity:0.7000000000000001"/><path d="M893.34,348.76h0l-4.76-.65a.1.1,0,0,1,0-.2l4.76.66a.1.1,0,0,1,.08.11A.1.1,0,0,1,893.34,348.76Z" style="fill:#b6c1c7"/><path d="M888.59,348.11a.1.1,0,0,1-.09-.07.09.09,0,0,1,.06-.12l4.92-1.64a.09.09,0,0,1,.12.06.1.1,0,0,1-.06.13l-4.92,1.63Z" style="fill:#b6c1c7"/><path d="M892.88,351l0,0-4.3-2.91a.09.09,0,0,1,0-.13.09.09,0,0,1,.13,0l4.29,2.91a.1.1,0,0,1,0,.14A.12.12,0,0,1,892.88,351Z" style="fill:#b6c1c7"/><path d="M915.23,150.86c0,1.22-.33,2.22-.84,2.24s-1-.95-1-2.17.33-2.21.84-2.23S915.19,149.65,915.23,150.86Z" style="fill:#b6c1c7"/><path d="M915.13,150.87c0,1.08-.27,2-.69,2s-.79-.85-.83-1.94.27-2,.69-2S915.09,149.79,915.13,150.87Z" style="fill:#e4e9ec"/><path d="M914.39,153.1c-.91,0-1.6-1.17-1.64-2.16s.55-2.2,1.48-2.24c-.51,0-.89,1-.84,2.23S913.88,153.11,914.39,153.1Z" style="fill:#708088"/><path d="M914.72,150.88c0,.79-.19,1.45-.5,1.46s-.58-.62-.61-1.42.19-1.44.5-1.45S914.69,150.09,914.72,150.88Z" style="fill:#dae2e5;mix-blend-mode:multiply;opacity:0.7000000000000001"/><path d="M913.84,151a.1.1,0,0,1-.1-.09.1.1,0,0,1,.1-.1l2.23-.08a.09.09,0,0,1,.1.09.1.1,0,0,1-.09.1l-2.24.08Z" style="fill:#b6c1c7"/><path d="M916.07,150.93h0l-2.2-1a.1.1,0,0,1-.05-.13.1.1,0,0,1,.13-.05l2.2,1a.1.1,0,0,1,0,.13A.09.09,0,0,1,916.07,150.93Z" style="fill:#b6c1c7"/><path d="M914,152.08a.1.1,0,0,1-.05-.18l2.13-1.15a.09.09,0,0,1,.13,0,.1.1,0,0,1,0,.13L914,152.07Z" style="fill:#b6c1c7"/><path d="M915.23,170.4c0,1.21-.33,2.21-.84,2.23s-1-.95-1-2.16.33-2.22.84-2.23S915.19,169.19,915.23,170.4Z" style="fill:#b6c1c7"/><path d="M915.13,170.4c0,1.08-.27,2-.69,2s-.79-.85-.83-1.93.27-2,.69-2S915.09,169.32,915.13,170.4Z" style="fill:#e4e9ec"/><path d="M914.39,172.63c-.91,0-1.6-1.17-1.64-2.15s.55-2.21,1.48-2.24c-.51,0-.89,1-.84,2.23S913.88,172.65,914.39,172.63Z" style="fill:#708088"/><path d="M914.55,170.42c0,.75-.16,1.35-.42,1.36s-.5-.58-.52-1.32.16-1.35.42-1.36S914.53,169.68,914.55,170.42Z" style="fill:#dae2e5;mix-blend-mode:multiply;opacity:0.7000000000000001"/><path d="M913.84,170.55a.1.1,0,1,1,0-.2l2.23-.08h0a.1.1,0,0,1,.1.09.09.09,0,0,1-.09.1l-2.24.09Z" style="fill:#b6c1c7"/><path d="M916.07,170.46h0l-2.2-1a.1.1,0,1,1,.08-.18l2.2,1a.1.1,0,0,1,0,.13A.09.09,0,0,1,916.07,170.46Z" style="fill:#b6c1c7"/><path d="M914,171.61a.11.11,0,0,1-.09-.05.11.11,0,0,1,0-.13l2.13-1.15a.1.1,0,0,1,.13,0,.1.1,0,0,1,0,.13L914,171.6Z" style="fill:#b6c1c7"/><path d="M915.23,117.8c0,1.22-.33,2.22-.84,2.23s-1-1-1-2.16.33-2.21.84-2.23S915.19,116.59,915.23,117.8Z" style="fill:#b6c1c7"/><path d="M915.13,117.81c0,1.08-.27,2-.69,2s-.79-.84-.83-1.93.27-2,.69-2S915.09,116.73,915.13,117.81Z" style="fill:#e4e9ec"/><path d="M914.39,120c-.91,0-1.6-1.16-1.64-2.15s.55-2.21,1.48-2.24c-.51,0-.89,1-.84,2.23S913.88,120.05,914.39,120Z" style="fill:#708088"/><path d="M914.59,117.83c0,.84-.16,1.53-.44,1.54s-.51-.66-.54-1.51.16-1.53.43-1.54S914.56,117,914.59,117.83Z" style="fill:#dae2e5;mix-blend-mode:multiply;opacity:0.7000000000000001"/><path d="M913.84,118a.1.1,0,0,1-.1-.09.09.09,0,0,1,.1-.1l2.23-.09c.06,0,.1,0,.1.1a.1.1,0,0,1-.09.1l-2.24.08Z" style="fill:#b6c1c7"/><path d="M916.07,117.87h0l-2.2-1a.09.09,0,0,1-.05-.12.1.1,0,0,1,.13,0l2.2,1a.1.1,0,0,1,0,.13A.09.09,0,0,1,916.07,117.87Z" style="fill:#b6c1c7"/><path d="M914,119a.11.11,0,0,1-.09,0,.12.12,0,0,1,0-.14l2.13-1.14a.09.09,0,0,1,.13,0,.1.1,0,0,1,0,.13L914,119Z" style="fill:#b6c1c7"/><path d="M898.89,190.43c-.24,2.35.37,4.35,1.36,4.45s2-1.74,2.22-4.09-.37-4.35-1.35-4.45S899.13,188.07,898.89,190.43Z" style="fill:#b6c1c7"/><path d="M899.08,190.45c-.21,2.1.28,3.87,1.1,4s1.66-1.55,1.87-3.65-.28-3.88-1.1-4S899.3,188.34,899.08,190.45Z" style="fill:#e4e9ec"/><path d="M900.57,190.6c-.15,1.43.07,2.63.48,2.67s.86-1.09,1-2.52-.07-2.64-.48-2.68S900.71,189.16,900.57,190.6Z" style="fill:#dae2e5;mix-blend-mode:multiply;opacity:0.7000000000000001"/><path d="M900.25,194.88c1.77.18,3.27-2.08,3.47-4s-.81-4.37-2.6-4.55c1,.1,1.59,2.09,1.35,4.45S901.24,195,900.25,194.88Z" style="fill:#708088"/><path d="M901.6,190.8h0l-4.34-.44a.12.12,0,0,1-.09-.11c0-.05.06-.1.11-.09l4.34.44a.1.1,0,0,1,.08.11A.09.09,0,0,1,901.6,190.8Z" style="fill:#b6c1c7"/><path d="M897.26,190.36a.1.1,0,0,1-.09-.07.09.09,0,0,1,.06-.12l4.41-1.65a.09.09,0,0,1,.12.06.09.09,0,0,1,0,.12l-4.42,1.65Z" style="fill:#b6c1c7"/><path d="M901.25,192.86l0,0-4-2.5a.09.09,0,0,1,0-.13.09.09,0,0,1,.13,0l4,2.5a.1.1,0,0,1,0,.18Z" style="fill:#b6c1c7"/><path d="M921,325.21c-1.29.09-2.1,4-1.78,8.81s1.63,8.59,2.93,8.5h0l1.53-.1c1.12-.07,1.86-3,1.85-6.78,0-.65,0-1.33-.07-2-.31-4.77-1.62-8.58-2.92-8.5Z" style="fill:#708088"/><path d="M925.46,333.61c.32,4.78-.47,8.72-1.78,8.81s-2.61-3.72-2.93-8.5.49-8.72,1.79-8.81S925.15,328.84,925.46,333.61Z" style="fill:#b6c1c7"/><path d="M925.21,333.63c.28,4.26-.36,7.77-1.44,7.84s-2.18-3.32-2.46-7.58.36-7.77,1.44-7.85S924.93,329.37,925.21,333.63Z" style="fill:#e4e9ec"/><path d="M903,202.28c1,.06,1.59,3.06,1.35,6.67s-1.23,6.5-2.21,6.44h0l-1.17-.08c-.84-.05-1.4-2.24-1.4-5.13,0-.5,0-1,.05-1.54.24-3.62,1.23-6.5,2.22-6.44Z" style="fill:#708088"/><path d="M899.6,208.64c-.24,3.62.36,6.61,1.35,6.67s2-2.82,2.22-6.44-.37-6.6-1.35-6.67S899.84,205,899.6,208.64Z" style="fill:#b6c1c7"/><path d="M899.79,208.65c-.21,3.23.28,5.89,1.1,5.94s1.65-2.52,1.86-5.74-.28-5.89-1.09-5.94S900,205.43,899.79,208.65Z" style="fill:#e4e9ec"/><rect x="913.16" y="129.03" width="3.53" height="0.34" style="fill:#4b5964"/><rect x="916.69" y="126.28" width="0.29" height="5.83" style="fill:#4b5964"/><rect x="899.09" y="118.98" width="3.53" height="0.34" transform="translate(1801.71 238.3) rotate(180)" style="fill:#4b5964"/><rect x="898.8" y="116.23" width="0.29" height="5.83" transform="translate(1797.89 238.3) rotate(180)" style="fill:#4b5964"/><rect x="913.16" y="144.76" width="3.53" height="0.34" style="fill:#4b5964"/><rect x="916.69" y="143.18" width="0.29" height="3.49" style="fill:#4b5964"/><rect x="899.87" y="137.01" width="2.76" height="0.34" transform="translate(1802.49 274.37) rotate(180)" style="fill:#4b5964"/><rect x="899.58" y="135.44" width="0.29" height="3.49" transform="translate(1799.44 274.37) rotate(180)" style="fill:#4b5964"/><rect x="899.87" y="152.82" width="2.76" height="0.34" transform="translate(1802.49 305.97) rotate(180)" style="fill:#4b5964"/><rect x="899.58" y="151.24" width="0.29" height="3.49" transform="translate(1799.44 305.97) rotate(180)" style="fill:#4b5964"/><rect x="899.87" y="170.36" width="2.76" height="0.34" transform="translate(1802.49 341.06) rotate(180)" style="fill:#4b5964"/><rect x="899.58" y="168.79" width="0.29" height="3.49" transform="translate(1799.44 341.06) rotate(180)" style="fill:#4b5964"/><rect x="913.16" y="161.71" width="3.53" height="0.34" style="fill:#4b5964"/><rect x="916.69" y="160.13" width="0.29" height="3.49" style="fill:#4b5964"/><rect x="913.16" y="178.4" width="3.53" height="0.34" style="fill:#4b5964"/><rect x="916.69" y="176.82" width="0.29" height="3.49" style="fill:#4b5964"/><rect x="894.57" y="283.92" width="26.64" height="2.75" style="fill:#bbc6cd"/><path d="M926.7,390.49H889.09l.9-3.38h4.67c-.66,2,.33,2.26,5.45,2.26h26.28Z" style="fill:#dae2e5;mix-blend-mode:multiply"/><rect x="894.57" y="286.05" width="26.64" height="0.62" style="fill:#6c7f86"/><rect x="894.57" y="283.92" width="26.64" height="0.31" style="fill:#e9ecef"/><rect x="151.97" y="186.72" width="1.21" height="33.92" style="fill:#5b6d76"/><rect x="154.34" y="186.72" width="1.21" height="33.92" style="fill:#5b6d76"/><rect x="156.87" y="186.72" width="1.21" height="33.92" style="fill:#5b6d76"/><rect x="158.99" y="186.72" width="1.21" height="33.92" style="fill:#5b6d76"/><rect x="182.87" y="186.72" width="1.21" height="33.92" transform="translate(366.95 407.36) rotate(180)" style="fill:#5b6d76"/><rect x="180.51" y="186.72" width="1.21" height="33.92" transform="translate(362.22 407.36) rotate(180)" style="fill:#5b6d76"/><rect x="177.97" y="186.72" width="1.21" height="33.92" transform="translate(357.15 407.36) rotate(180)" style="fill:#5b6d76"/><rect x="175.85" y="186.72" width="1.21" height="33.92" transform="translate(352.91 407.36) rotate(180)" style="fill:#5b6d76"/><polygon points="174.47 187.42 162.1 199.11 161.59 198.63 173.96 186.94 174.47 187.42" style="fill:#99a6ae"/><polygon points="161.59 187.42 173.96 199.11 174.47 198.63 162.1 186.94 161.59 187.42" style="fill:#bbc6cd"/><polygon points="174.47 199.62 162.1 211.31 161.59 210.83 173.96 199.14 174.47 199.62" style="fill:#99a6ae"/><polygon points="161.59 199.62 173.96 211.31 174.47 210.83 162.1 199.14 161.59 199.62" style="fill:#bbc6cd"/><polygon points="174.47 211.83 162.1 223.52 161.59 223.04 173.96 211.35 174.47 211.83" style="fill:#99a6ae"/><polygon points="161.59 211.83 173.96 223.52 174.47 223.04 162.1 211.35 161.59 211.83" style="fill:#bbc6cd"/><polygon points="174.47 224.03 162.1 235.72 161.59 235.24 173.96 223.55 174.47 224.03" style="fill:#99a6ae"/><polygon points="161.59 224.03 173.96 235.72 174.47 235.24 162.1 223.55 161.59 224.03" style="fill:#bbc6cd"/><polygon points="174.47 236.24 162.1 247.93 161.59 247.45 173.96 235.76 174.47 236.24" style="fill:#99a6ae"/><polygon points="161.59 236.24 173.96 247.93 174.47 247.45 162.1 235.76 161.59 236.24" style="fill:#bbc6cd"/><polygon points="174.47 248.45 162.1 260.14 161.59 259.66 173.96 247.97 174.47 248.45" style="fill:#99a6ae"/><polygon points="161.59 248.45 173.96 260.14 174.47 259.66 162.1 247.97 161.59 248.45" style="fill:#bbc6cd"/><polygon points="174.47 260.65 162.1 272.34 161.59 271.86 173.96 260.17 174.47 260.65" style="fill:#99a6ae"/><polygon points="161.59 260.65 173.96 272.34 174.47 271.86 162.1 260.17 161.59 260.65" style="fill:#bbc6cd"/><polygon points="174.47 272.86 162.1 284.55 161.59 284.07 173.96 272.38 174.47 272.86" style="fill:#99a6ae"/><polygon points="161.59 272.86 173.96 284.55 174.47 284.07 162.1 272.38 161.59 272.86" style="fill:#bbc6cd"/><polygon points="174.47 285.07 162.1 296.75 161.59 296.27 173.96 284.58 174.47 285.07" style="fill:#99a6ae"/><polygon points="161.59 285.07 173.96 296.75 174.47 296.27 162.1 284.58 161.59 285.07" style="fill:#bbc6cd"/><polygon points="174.47 297.27 162.1 308.96 161.59 308.48 173.96 296.79 174.47 297.27" style="fill:#99a6ae"/><polygon points="161.59 297.27 173.96 308.96 174.47 308.48 162.1 296.79 161.59 297.27" style="fill:#bbc6cd"/><polygon points="174.47 309.48 162.1 321.17 161.59 320.69 173.96 309 174.47 309.48" style="fill:#99a6ae"/><polygon points="161.59 309.48 173.96 321.17 174.47 320.69 162.1 309 161.59 309.48" style="fill:#bbc6cd"/><polygon points="174.47 321.68 162.1 333.37 161.59 332.89 173.96 321.2 174.47 321.68" style="fill:#99a6ae"/><polygon points="161.59 321.68 173.96 333.37 174.47 332.89 162.1 321.2 161.59 321.68" style="fill:#bbc6cd"/><polygon points="174.47 333.89 162.1 345.58 161.59 345.1 173.96 333.41 174.47 333.89" style="fill:#99a6ae"/><polygon points="161.59 333.89 173.96 345.58 174.47 345.1 162.1 333.41 161.59 333.89" style="fill:#bbc6cd"/><polygon points="174.47 346.1 162.1 357.79 161.59 357.3 173.96 345.61 174.47 346.1" style="fill:#99a6ae"/><polygon points="161.59 346.1 173.96 357.79 174.47 357.3 162.1 345.61 161.59 346.1" style="fill:#bbc6cd"/><polygon points="174.47 358.3 162.1 369.99 161.59 369.51 173.96 357.82 174.47 358.3" style="fill:#99a6ae"/><polygon points="161.59 358.3 173.96 369.99 174.47 369.51 162.1 357.82 161.59 358.3" style="fill:#bbc6cd"/><polygon points="174.47 370.51 162.1 382.2 161.59 381.72 173.96 370.03 174.47 370.51" style="fill:#99a6ae"/><polygon points="161.59 370.51 173.96 382.2 174.47 381.72 162.1 370.03 161.59 370.51" style="fill:#bbc6cd"/><polygon points="168.03 153 169.22 183.16 166.84 183.16 168.03 153" style="fill:#bbc6cd"/><rect x="174.03" y="186.53" width="0.87" height="201.31" style="fill:#bbc6cd"/><rect x="161.15" y="186.53" width="0.87" height="201.31" style="fill:#99a6ae"/><rect x="162.02" y="186.53" width="12.01" height="0.79" style="fill:#99a6ae"/><rect x="162.02" y="198.73" width="12.01" height="0.79" style="fill:#99a6ae"/><rect x="162.02" y="210.94" width="12.01" height="0.79" style="fill:#99a6ae"/><rect x="162.02" y="223.14" width="12.01" height="0.79" style="fill:#99a6ae"/><rect x="162.02" y="235.35" width="12.01" height="0.79" style="fill:#99a6ae"/><rect x="162.02" y="247.55" width="12.01" height="0.79" style="fill:#99a6ae"/><rect x="162.02" y="259.76" width="12.01" height="0.79" style="fill:#99a6ae"/><rect x="162.02" y="271.96" width="12.01" height="0.79" style="fill:#99a6ae"/><rect x="162.02" y="284.16" width="12.01" height="0.79" style="fill:#99a6ae"/><rect x="162.02" y="296.37" width="12.01" height="0.79" style="fill:#99a6ae"/><rect x="162.02" y="308.57" width="12.01" height="0.79" style="fill:#99a6ae"/><rect x="162.02" y="320.78" width="12.01" height="0.79" style="fill:#99a6ae"/><rect x="162.02" y="332.98" width="12.01" height="0.79" style="fill:#99a6ae"/><rect x="162.02" y="345.19" width="12.01" height="0.79" style="fill:#99a6ae"/><rect x="162.02" y="357.39" width="12.01" height="0.79" style="fill:#99a6ae"/><rect x="162.02" y="369.6" width="12.01" height="0.79" style="fill:#99a6ae"/><rect x="162.02" y="381.8" width="12.01" height="0.79" style="fill:#99a6ae"/><polygon points="177.71 387.83 158.34 387.83 157.3 390.49 178.75 390.49 177.71 387.83" style="fill:#dae2e5"/><polygon points="168.03 182.45 174.9 186.53 161.15 186.53 168.03 182.45" style="fill:#bbc6cd"/><path d="M159.56,229.87c2.62.17,4.35,6.51,3.84,14.13s-3.05,13.68-5.67,13.51h0l-3.1-.21c-2.25-.15-3.83-4.79-3.92-10.89,0-1,0-2.13.08-3.24.5-7.63,3-13.68,5.67-13.51Z" style="fill:#708088"/><path d="M150.79,243.17c-.51,7.62,1.2,14,3.84,14.13s5.17-5.88,5.67-13.5-1.22-14-3.84-14.14S151.29,235.54,150.79,243.17Z" style="fill:#b6c1c7"/><path d="M151.3,243.2c-.45,6.81.95,12.44,3.12,12.58s4.31-5.25,4.76-12.05-1-12.44-3.13-12.58S151.75,236.4,151.3,243.2Z" style="fill:#e4e9ec"/><rect x="178.59" y="309.85" width="0.44" height="13.38" style="fill:#99a6ae"/><rect x="175.95" y="292.95" width="0.57" height="2.66" transform="translate(470.51 118.05) rotate(90)" style="fill:#4b5964"/><rect x="175.95" y="304.29" width="0.57" height="2.66" transform="translate(481.86 129.39) rotate(90)" style="fill:#4b5964"/><rect x="177.56" y="289.82" width="2.48" height="20.02" rx="0.53" style="fill:#99a6ae"/><rect x="157.03" y="309.85" width="0.44" height="13.38" transform="translate(314.5 633.07) rotate(180)" style="fill:#99a6ae"/><rect x="159.54" y="292.95" width="0.57" height="2.66" transform="translate(454.1 134.46) rotate(90)" style="fill:#4b5964"/><rect x="159.54" y="304.29" width="0.57" height="2.66" transform="translate(465.44 145.8) rotate(90)" style="fill:#4b5964"/><rect x="156.01" y="289.82" width="2.48" height="20.02" rx="0.53" transform="translate(314.5 599.67) rotate(180)" style="fill:#99a6ae"/><rect x="174.9" y="186.53" width="9.18" height="0.39" style="fill:#b6c1c7"/><rect x="167.12" y="203.48" width="33.52" height="0.39" transform="translate(387.57 19.79) rotate(90)" style="fill:#b6c1c7"/><rect x="164.95" y="203.48" width="33.52" height="0.39" transform="translate(385.4 21.96) rotate(90)" style="fill:#b6c1c7"/><rect x="162.42" y="203.48" width="33.52" height="0.39" transform="translate(382.86 24.5) rotate(90)" style="fill:#b6c1c7"/><rect x="160.25" y="203.48" width="33.52" height="0.39" transform="translate(380.69 26.67) rotate(90)" style="fill:#b6c1c7"/><rect x="174.9" y="220.44" width="9.18" height="0.39" style="fill:#b6c1c7"/><path d="M174.9,220.84a5,5,0,0,0,9.18,0Z" style="fill:#708088"/><rect x="151.97" y="186.53" width="9.18" height="0.39" transform="translate(313.13 373.44) rotate(180)" style="fill:#b6c1c7"/><rect x="135.41" y="203.48" width="33.52" height="0.39" transform="translate(355.85 51.51) rotate(90)" style="fill:#b6c1c7"/><rect x="137.58" y="203.48" width="33.52" height="0.39" transform="translate(358.02 49.34) rotate(90)" style="fill:#b6c1c7"/><rect x="140.11" y="203.48" width="33.52" height="0.39" transform="translate(360.55 46.81) rotate(90)" style="fill:#b6c1c7"/><rect x="142.28" y="203.48" width="33.52" height="0.39" transform="translate(362.72 44.64) rotate(90)" style="fill:#b6c1c7"/><rect x="151.97" y="220.44" width="9.18" height="0.39" transform="translate(313.13 441.28) rotate(180)" style="fill:#b6c1c7"/><path d="M161.15,220.84a5,5,0,0,1-9.18,0Z" style="fill:#708088"/><polygon points="177.71 389.51 158.34 389.51 157.3 390.49 178.75 390.49 177.71 389.51" style="fill:#dae2e5;mix-blend-mode:multiply"/><polygon points="168.03 182.45 163.64 186.53 161.15 186.53 168.03 182.45" style="fill:#99a6ae"/><polygon points="168.03 182.45 174.9 186.53 172.59 186.53 168.03 182.45" style="fill:#e4e9ec"/><rect x="769.28" y="296.55" width="0.56" height="15.64" style="fill:#5b6d76"/><rect x="770.37" y="296.55" width="0.56" height="15.64" style="fill:#5b6d76"/><rect x="771.54" y="296.55" width="0.56" height="15.64" style="fill:#5b6d76"/><rect x="772.52" y="296.55" width="0.56" height="15.64" style="fill:#5b6d76"/><rect x="783.53" y="296.55" width="0.56" height="15.64" transform="translate(1567.61 608.73) rotate(180)" style="fill:#5b6d76"/><rect x="782.44" y="296.55" width="0.56" height="15.64" transform="translate(1565.43 608.73) rotate(180)" style="fill:#5b6d76"/><rect x="781.27" y="296.55" width="0.56" height="15.64" transform="translate(1563.09 608.73) rotate(180)" style="fill:#5b6d76"/><rect x="780.29" y="296.55" width="0.56" height="15.64" transform="translate(1561.14 608.73) rotate(180)" style="fill:#5b6d76"/><polygon points="779.65 296.87 773.95 302.26 773.72 302.04 779.42 296.65 779.65 296.87" style="fill:#99a6ae"/><polygon points="773.72 296.87 779.42 302.26 779.65 302.04 773.95 296.65 773.72 296.87" style="fill:#bbc6cd"/><polygon points="779.65 302.5 773.95 307.88 773.72 307.66 779.42 302.27 779.65 302.5" style="fill:#99a6ae"/><polygon points="773.72 302.5 779.42 307.88 779.65 307.66 773.95 302.27 773.72 302.5" style="fill:#bbc6cd"/><polygon points="779.65 308.12 773.95 313.51 773.72 313.29 779.42 307.9 779.65 308.12" style="fill:#99a6ae"/><polygon points="773.72 308.12 779.42 313.51 779.65 313.29 773.95 307.9 773.72 308.12" style="fill:#bbc6cd"/><polygon points="779.65 313.75 773.95 319.14 773.72 318.92 779.42 313.53 779.65 313.75" style="fill:#99a6ae"/><polygon points="773.72 313.75 779.42 319.14 779.65 318.92 773.95 313.53 773.72 313.75" style="fill:#bbc6cd"/><polygon points="779.65 319.38 773.95 324.77 773.72 324.55 779.42 319.15 779.65 319.38" style="fill:#99a6ae"/><polygon points="773.72 319.38 779.42 324.77 779.65 324.55 773.95 319.15 773.72 319.38" style="fill:#bbc6cd"/><polygon points="779.65 325 773.95 330.39 773.72 330.17 779.42 324.78 779.65 325" style="fill:#99a6ae"/><polygon points="773.72 325 779.42 330.39 779.65 330.17 773.95 324.78 773.72 325" style="fill:#bbc6cd"/><polygon points="779.65 330.63 773.95 336.02 773.72 335.8 779.42 330.41 779.65 330.63" style="fill:#99a6ae"/><polygon points="773.72 330.63 779.42 336.02 779.65 335.8 773.95 330.41 773.72 330.63" style="fill:#bbc6cd"/><polygon points="779.65 336.26 773.95 341.65 773.72 341.43 779.42 336.04 779.65 336.26" style="fill:#99a6ae"/><polygon points="773.72 336.26 779.42 341.65 779.65 341.43 773.95 336.04 773.72 336.26" style="fill:#bbc6cd"/><polygon points="779.65 341.89 773.95 347.28 773.72 347.06 779.42 341.67 779.65 341.89" style="fill:#99a6ae"/><polygon points="773.72 341.89 779.42 347.28 779.65 347.06 773.95 341.67 773.72 341.89" style="fill:#bbc6cd"/><polygon points="779.65 347.51 773.95 352.9 773.72 352.68 779.42 347.29 779.65 347.51" style="fill:#99a6ae"/><polygon points="773.72 347.51 779.42 352.9 779.65 352.68 773.95 347.29 773.72 347.51" style="fill:#bbc6cd"/><polygon points="779.65 353.14 773.95 358.53 773.72 358.31 779.42 352.92 779.65 353.14" style="fill:#99a6ae"/><polygon points="773.72 353.14 779.42 358.53 779.65 358.31 773.95 352.92 773.72 353.14" style="fill:#bbc6cd"/><polygon points="779.65 358.77 773.95 364.16 773.72 363.94 779.42 358.55 779.65 358.77" style="fill:#99a6ae"/><polygon points="773.72 358.77 779.42 364.16 779.65 363.94 773.95 358.55 773.72 358.77" style="fill:#bbc6cd"/><polygon points="779.65 364.4 773.95 369.79 773.72 369.56 779.42 364.18 779.65 364.4" style="fill:#99a6ae"/><polygon points="773.72 364.4 779.42 369.79 779.65 369.56 773.95 364.18 773.72 364.4" style="fill:#bbc6cd"/><polygon points="779.65 370.02 773.95 375.41 773.72 375.19 779.42 369.8 779.65 370.02" style="fill:#99a6ae"/><polygon points="773.72 370.02 779.42 375.41 779.65 375.19 773.95 369.8 773.72 370.02" style="fill:#bbc6cd"/><polygon points="779.65 375.65 773.95 381.04 773.72 380.82 779.42 375.43 779.65 375.65" style="fill:#99a6ae"/><polygon points="773.72 375.65 779.42 381.04 779.65 380.82 773.95 375.43 773.72 375.65" style="fill:#bbc6cd"/><polygon points="779.65 381.28 773.95 386.67 773.72 386.45 779.42 381.06 779.65 381.28" style="fill:#99a6ae"/><polygon points="773.72 381.28 779.42 386.67 779.65 386.45 773.95 381.06 773.72 381.28" style="fill:#bbc6cd"/><polygon points="776.68 281 777.23 294.9 776.14 294.9 776.68 281" style="fill:#bbc6cd"/><rect x="779.45" y="296.46" width="0.4" height="92.81" style="fill:#bbc6cd"/><rect x="773.51" y="296.46" width="0.4" height="92.81" style="fill:#99a6ae"/><rect x="773.92" y="296.46" width="5.54" height="0.36" style="fill:#99a6ae"/><rect x="773.92" y="302.08" width="5.54" height="0.36" style="fill:#99a6ae"/><rect x="773.92" y="307.71" width="5.54" height="0.36" style="fill:#99a6ae"/><rect x="773.92" y="313.34" width="5.54" height="0.36" style="fill:#99a6ae"/><rect x="773.92" y="318.96" width="5.54" height="0.36" style="fill:#99a6ae"/><rect x="773.92" y="324.59" width="5.54" height="0.36" style="fill:#99a6ae"/><rect x="773.92" y="330.22" width="5.54" height="0.36" style="fill:#99a6ae"/><rect x="773.92" y="335.85" width="5.54" height="0.36" style="fill:#99a6ae"/><rect x="773.92" y="341.47" width="5.54" height="0.36" style="fill:#99a6ae"/><rect x="773.92" y="347.1" width="5.54" height="0.36" style="fill:#99a6ae"/><rect x="773.92" y="352.73" width="5.54" height="0.36" style="fill:#99a6ae"/><rect x="773.92" y="358.35" width="5.54" height="0.36" style="fill:#99a6ae"/><rect x="773.92" y="363.98" width="5.54" height="0.36" style="fill:#99a6ae"/><rect x="773.92" y="369.61" width="5.54" height="0.36" style="fill:#99a6ae"/><rect x="773.92" y="375.23" width="5.54" height="0.36" style="fill:#99a6ae"/><rect x="773.92" y="380.86" width="5.54" height="0.36" style="fill:#99a6ae"/><rect x="773.92" y="386.49" width="5.54" height="0.36" style="fill:#99a6ae"/><polygon points="781.15 389.27 772.22 389.27 771.74 390.49 781.63 390.49 781.15 389.27" style="fill:#dae2e5"/><polygon points="776.68 294.58 779.85 296.46 773.51 296.46 776.68 294.58" style="fill:#bbc6cd"/><path d="M772.78,316.44c1.21.08,2,3,1.77,6.52s-1.4,6.3-2.61,6.22h0l-1.43-.09c-1-.07-1.77-2.21-1.81-5,0-.48,0-1,0-1.5.23-3.51,1.4-6.31,2.61-6.23Z" style="fill:#708088"/><path d="M768.74,322.57c-.24,3.52.55,6.44,1.77,6.52s2.38-2.71,2.61-6.23-.56-6.44-1.77-6.52S769,319.06,768.74,322.57Z" style="fill:#b6c1c7"/><path d="M769,322.59c-.21,3.13.44,5.73,1.44,5.8s2-2.43,2.2-5.56-.44-5.74-1.45-5.8S769.18,319.45,769,322.59Z" style="fill:#e4e9ec"/><rect x="781.55" y="353.31" width="0.2" height="6.17" style="fill:#99a6ae"/><rect x="780.34" y="345.52" width="0.26" height="1.23" transform="translate(1126.6 -434.33) rotate(90)" style="fill:#4b5964"/><rect x="780.34" y="350.75" width="0.26" height="1.23" transform="translate(1131.83 -429.1) rotate(90)" style="fill:#4b5964"/><rect x="781.08" y="344.08" width="1.14" height="9.23" rx="0.37" style="fill:#99a6ae"/><rect x="771.62" y="353.31" width="0.2" height="6.17" transform="translate(1543.43 712.79) rotate(180)" style="fill:#99a6ae"/><rect x="772.77" y="345.52" width="0.26" height="1.23" transform="translate(1119.04 -426.77) rotate(90)" style="fill:#4b5964"/><rect x="772.77" y="350.75" width="0.26" height="1.23" transform="translate(1124.27 -421.54) rotate(90)" style="fill:#4b5964"/><rect x="771.14" y="344.08" width="1.14" height="9.23" rx="0.37" transform="matrix(-1, 0, 0, -1, 1543.43, 697.39)" style="fill:#99a6ae"/><rect x="779.85" y="296.46" width="4.23" height="0.18" style="fill:#b6c1c7"/><rect x="776.27" y="304.27" width="15.46" height="0.18" transform="translate(1088.36 -479.63) rotate(90)" style="fill:#b6c1c7"/><rect x="775.27" y="304.27" width="15.46" height="0.18" transform="translate(1087.36 -478.63) rotate(90)" style="fill:#b6c1c7"/><rect x="774.1" y="304.27" width="15.46" height="0.18" transform="translate(1086.19 -477.46) rotate(90)" style="fill:#b6c1c7"/><rect x="773.1" y="304.27" width="15.46" height="0.18" transform="translate(1085.19 -476.46) rotate(90)" style="fill:#b6c1c7"/><rect x="779.85" y="312.09" width="4.23" height="0.18" style="fill:#b6c1c7"/><path d="M779.85,312.28a2.31,2.31,0,0,0,4.24,0Z" style="fill:#708088"/><rect x="769.28" y="296.46" width="4.23" height="0.18" transform="translate(1542.8 593.09) rotate(180)" style="fill:#b6c1c7"/><rect x="761.65" y="304.27" width="15.46" height="0.18" transform="translate(1073.74 -465.01) rotate(90)" style="fill:#b6c1c7"/><rect x="762.65" y="304.27" width="15.46" height="0.18" transform="translate(1074.74 -466.01) rotate(90)" style="fill:#b6c1c7"/><rect x="763.81" y="304.27" width="15.46" height="0.18" transform="translate(1075.91 -467.18) rotate(90)" style="fill:#b6c1c7"/><rect x="764.82" y="304.27" width="15.46" height="0.18" transform="translate(1076.91 -468.18) rotate(90)" style="fill:#b6c1c7"/><rect x="769.28" y="312.09" width="4.23" height="0.18" transform="translate(1542.8 624.37) rotate(180)" style="fill:#b6c1c7"/><path d="M773.51,312.28a2.3,2.3,0,0,1-2.11,1.39,2.32,2.32,0,0,1-2.12-1.39Z" style="fill:#708088"/><polygon points="776.68 294.58 774.66 296.46 773.51 296.46 776.68 294.58" style="fill:#99a6ae"/><polygon points="776.68 294.58 779.85 296.46 778.79 296.46 776.68 294.58" style="fill:#e4e9ec"/></g></g></svg>